<mxfile host="app.diagrams.net" modified="2024-05-16T12:09:06.092Z" agent="Mozilla/5.0 (Windows NT 10.0; Win64; x64) AppleWebKit/537.36 (KHTML, like Gecko) Chrome/122.0.0.0 Safari/537.36" etag="JXEdPEL0yXRues3qdNUl" version="24.4.2" type="google" pages="6">
  <diagram name="Đăng nhập" id="13e1069c-82ec-6db2-03f1-153e76fe0fe0">
    <mxGraphModel grid="1" page="1" gridSize="10" guides="1" tooltips="1" connect="1" arrows="1" fold="1" pageScale="1" pageWidth="1100" pageHeight="850" background="none" math="0" shadow="0">
      <root>
        <mxCell id="0" />
        <mxCell id="1" parent="0" />
        <mxCell id="mrUOJZ1gFHpuIVqIUtLo-6" value="Giao diện đăng nhập" style="shape=umlLifeline;perimeter=lifelinePerimeter;whiteSpace=wrap;html=1;container=1;dropTarget=0;collapsible=0;recursiveResize=0;outlineConnect=0;portConstraint=eastwest;newEdgeStyle={&quot;curved&quot;:0,&quot;rounded&quot;:0};" vertex="1" parent="1">
          <mxGeometry x="330" y="90" width="120" height="570" as="geometry" />
        </mxCell>
        <mxCell id="mrUOJZ1gFHpuIVqIUtLo-7" value="Người dùng" style="shape=umlActor;verticalLabelPosition=bottom;verticalAlign=top;html=1;" vertex="1" parent="1">
          <mxGeometry x="120" y="70" width="30" height="60" as="geometry" />
        </mxCell>
        <mxCell id="mrUOJZ1gFHpuIVqIUtLo-8" value="" style="endArrow=none;dashed=1;html=1;rounded=0;" edge="1" parent="1" source="mrUOJZ1gFHpuIVqIUtLo-15">
          <mxGeometry width="50" height="50" relative="1" as="geometry">
            <mxPoint x="134.55" y="560" as="sourcePoint" />
            <mxPoint x="134.55" y="140" as="targetPoint" />
          </mxGeometry>
        </mxCell>
        <mxCell id="mrUOJZ1gFHpuIVqIUtLo-9" value="Controller" style="shape=umlLifeline;perimeter=lifelinePerimeter;whiteSpace=wrap;html=1;container=1;dropTarget=0;collapsible=0;recursiveResize=0;outlineConnect=0;portConstraint=eastwest;newEdgeStyle={&quot;curved&quot;:0,&quot;rounded&quot;:0};" vertex="1" parent="1">
          <mxGeometry x="610" y="90" width="100" height="570" as="geometry" />
        </mxCell>
        <mxCell id="mrUOJZ1gFHpuIVqIUtLo-18" value="" style="html=1;points=[[0,0,0,0,5],[0,1,0,0,-5],[1,0,0,0,5],[1,1,0,0,-5]];perimeter=orthogonalPerimeter;outlineConnect=0;targetShapes=umlLifeline;portConstraint=eastwest;newEdgeStyle={&quot;curved&quot;:0,&quot;rounded&quot;:0};" vertex="1" parent="mrUOJZ1gFHpuIVqIUtLo-9">
          <mxGeometry x="45" y="140" width="10" height="390" as="geometry" />
        </mxCell>
        <mxCell id="mrUOJZ1gFHpuIVqIUtLo-12" value="1. Nhập email và mật khẩu" style="html=1;verticalAlign=bottom;endArrow=block;curved=0;rounded=0;" edge="1" parent="1" target="mrUOJZ1gFHpuIVqIUtLo-17">
          <mxGeometry width="80" relative="1" as="geometry">
            <mxPoint x="140" y="200" as="sourcePoint" />
            <mxPoint x="360" y="200" as="targetPoint" />
          </mxGeometry>
        </mxCell>
        <mxCell id="mrUOJZ1gFHpuIVqIUtLo-16" value="" style="endArrow=none;dashed=1;html=1;rounded=0;" edge="1" parent="1" target="mrUOJZ1gFHpuIVqIUtLo-15">
          <mxGeometry width="50" height="50" relative="1" as="geometry">
            <mxPoint x="135" y="660" as="sourcePoint" />
            <mxPoint x="134.55" y="140" as="targetPoint" />
          </mxGeometry>
        </mxCell>
        <mxCell id="mrUOJZ1gFHpuIVqIUtLo-15" value="" style="html=1;points=[[0,0,0,0,5],[0,1,0,0,-5],[1,0,0,0,5],[1,1,0,0,-5]];perimeter=orthogonalPerimeter;outlineConnect=0;targetShapes=umlLifeline;portConstraint=eastwest;newEdgeStyle={&quot;curved&quot;:0,&quot;rounded&quot;:0};" vertex="1" parent="1">
          <mxGeometry x="130" y="200" width="10" height="420" as="geometry" />
        </mxCell>
        <mxCell id="mrUOJZ1gFHpuIVqIUtLo-19" value="2. Gửi email và mật khẩu" style="html=1;verticalAlign=bottom;endArrow=block;curved=0;rounded=0;" edge="1" parent="1" source="mrUOJZ1gFHpuIVqIUtLo-17">
          <mxGeometry width="80" relative="1" as="geometry">
            <mxPoint x="385" y="230" as="sourcePoint" />
            <mxPoint x="655" y="230" as="targetPoint" />
          </mxGeometry>
        </mxCell>
        <mxCell id="mrUOJZ1gFHpuIVqIUtLo-24" value="" style="html=1;verticalAlign=bottom;endArrow=block;curved=0;rounded=0;" edge="1" parent="1" target="mrUOJZ1gFHpuIVqIUtLo-17">
          <mxGeometry width="80" relative="1" as="geometry">
            <mxPoint x="385" y="230" as="sourcePoint" />
            <mxPoint x="655" y="230" as="targetPoint" />
          </mxGeometry>
        </mxCell>
        <mxCell id="mrUOJZ1gFHpuIVqIUtLo-17" value="" style="html=1;points=[[0,0,0,0,5],[0,1,0,0,-5],[1,0,0,0,5],[1,1,0,0,-5]];perimeter=orthogonalPerimeter;outlineConnect=0;targetShapes=umlLifeline;portConstraint=eastwest;newEdgeStyle={&quot;curved&quot;:0,&quot;rounded&quot;:0};" vertex="1" parent="1">
          <mxGeometry x="385" y="200" width="10" height="420" as="geometry" />
        </mxCell>
        <mxCell id="mrUOJZ1gFHpuIVqIUtLo-25" value="Cơ sở dữ liệu" style="shape=umlLifeline;perimeter=lifelinePerimeter;whiteSpace=wrap;html=1;container=1;dropTarget=0;collapsible=0;recursiveResize=0;outlineConnect=0;portConstraint=eastwest;newEdgeStyle={&quot;curved&quot;:0,&quot;rounded&quot;:0};" vertex="1" parent="1">
          <mxGeometry x="870" y="90" width="100" height="570" as="geometry" />
        </mxCell>
        <mxCell id="mrUOJZ1gFHpuIVqIUtLo-26" value="" style="html=1;points=[[0,0,0,0,5],[0,1,0,0,-5],[1,0,0,0,5],[1,1,0,0,-5]];perimeter=orthogonalPerimeter;outlineConnect=0;targetShapes=umlLifeline;portConstraint=eastwest;newEdgeStyle={&quot;curved&quot;:0,&quot;rounded&quot;:0};" vertex="1" parent="mrUOJZ1gFHpuIVqIUtLo-25">
          <mxGeometry x="45" y="170" width="10" height="360" as="geometry" />
        </mxCell>
        <mxCell id="mrUOJZ1gFHpuIVqIUtLo-27" value="3. Kiểm tra thông tin đăng nhập" style="html=1;verticalAlign=bottom;endArrow=block;curved=0;rounded=0;" edge="1" parent="1" source="mrUOJZ1gFHpuIVqIUtLo-18">
          <mxGeometry width="80" relative="1" as="geometry">
            <mxPoint x="670" y="260" as="sourcePoint" />
            <mxPoint x="919.5000000000002" y="260" as="targetPoint" />
          </mxGeometry>
        </mxCell>
        <mxCell id="mrUOJZ1gFHpuIVqIUtLo-28" value="4. Trả về kết quả" style="html=1;verticalAlign=bottom;endArrow=open;dashed=1;endSize=8;curved=0;rounded=0;" edge="1" parent="1" target="mrUOJZ1gFHpuIVqIUtLo-18">
          <mxGeometry relative="1" as="geometry">
            <mxPoint x="915" y="320" as="sourcePoint" />
            <mxPoint x="490" y="320" as="targetPoint" />
          </mxGeometry>
        </mxCell>
        <mxCell id="mrUOJZ1gFHpuIVqIUtLo-29" value="5.1. Chuyển hướng truy cập hệ thống" style="html=1;verticalAlign=bottom;endArrow=open;dashed=1;endSize=8;curved=0;rounded=0;" edge="1" parent="1">
          <mxGeometry relative="1" as="geometry">
            <mxPoint x="655" y="424" as="sourcePoint" />
            <mxPoint x="395" y="424" as="targetPoint" />
          </mxGeometry>
        </mxCell>
        <mxCell id="mrUOJZ1gFHpuIVqIUtLo-30" value="&lt;b&gt;alt&lt;/b&gt;" style="shape=umlFrame;whiteSpace=wrap;html=1;pointerEvents=0;" vertex="1" parent="1">
          <mxGeometry x="210" y="380" width="500" height="210" as="geometry" />
        </mxCell>
        <mxCell id="mrUOJZ1gFHpuIVqIUtLo-33" value="" style="endArrow=none;dashed=1;html=1;rounded=0;exitX=0.002;exitY=0.554;exitDx=0;exitDy=0;exitPerimeter=0;entryX=1;entryY=0.556;entryDx=0;entryDy=0;entryPerimeter=0;" edge="1" parent="1" source="mrUOJZ1gFHpuIVqIUtLo-30" target="mrUOJZ1gFHpuIVqIUtLo-30">
          <mxGeometry width="50" height="50" relative="1" as="geometry">
            <mxPoint x="220" y="480.00000000000006" as="sourcePoint" />
            <mxPoint x="523.9000000000001" y="480.00000000000006" as="targetPoint" />
          </mxGeometry>
        </mxCell>
        <mxCell id="mrUOJZ1gFHpuIVqIUtLo-34" value="[Đăng nhập thành công]" style="text;html=1;align=center;verticalAlign=middle;whiteSpace=wrap;rounded=0;" vertex="1" parent="1">
          <mxGeometry x="225" y="420" width="150" height="30" as="geometry" />
        </mxCell>
        <mxCell id="mrUOJZ1gFHpuIVqIUtLo-35" value="[Đăng nhập không thành công]" style="text;html=1;align=center;verticalAlign=middle;whiteSpace=wrap;rounded=0;" vertex="1" parent="1">
          <mxGeometry x="215" y="500" width="170" height="30" as="geometry" />
        </mxCell>
        <mxCell id="mrUOJZ1gFHpuIVqIUtLo-36" value="5.2. Thông báo đăng nhập không thành công" style="html=1;verticalAlign=bottom;endArrow=open;dashed=1;endSize=8;curved=0;rounded=0;" edge="1" parent="1">
          <mxGeometry relative="1" as="geometry">
            <mxPoint x="655" y="530" as="sourcePoint" />
            <mxPoint x="395" y="530" as="targetPoint" />
          </mxGeometry>
        </mxCell>
      </root>
    </mxGraphModel>
  </diagram>
  <diagram id="y7q_xeHuLaEonoyr957L" name="QLTKAdmin">
    <mxGraphModel grid="1" page="0" gridSize="10" guides="1" tooltips="1" connect="1" arrows="1" fold="1" pageScale="1" pageWidth="850" pageHeight="1100" math="0" shadow="0">
      <root>
        <mxCell id="0" />
        <mxCell id="1" parent="0" />
        <mxCell id="6f3sIDz7gi58eeUQ-6ZS-1" value="Giao diện" style="shape=umlLifeline;perimeter=lifelinePerimeter;whiteSpace=wrap;html=1;container=1;dropTarget=0;collapsible=0;recursiveResize=0;outlineConnect=0;portConstraint=eastwest;newEdgeStyle={&quot;curved&quot;:0,&quot;rounded&quot;:0};" vertex="1" parent="1">
          <mxGeometry x="330" y="120" width="120" height="880" as="geometry" />
        </mxCell>
        <mxCell id="cycyZhaLHzzRpvqO6oZx-12" value="" style="html=1;points=[[0,0,0,0,5],[0,1,0,0,-5],[1,0,0,0,5],[1,1,0,0,-5]];perimeter=orthogonalPerimeter;outlineConnect=0;targetShapes=umlLifeline;portConstraint=eastwest;newEdgeStyle={&quot;curved&quot;:0,&quot;rounded&quot;:0};" vertex="1" parent="6f3sIDz7gi58eeUQ-6ZS-1">
          <mxGeometry x="55" y="220" width="10" height="110" as="geometry" />
        </mxCell>
        <mxCell id="6f3sIDz7gi58eeUQ-6ZS-2" value="Người dùng" style="shape=umlActor;verticalLabelPosition=bottom;verticalAlign=top;html=1;" vertex="1" parent="1">
          <mxGeometry x="120" y="90" width="30" height="60" as="geometry" />
        </mxCell>
        <mxCell id="6f3sIDz7gi58eeUQ-6ZS-3" value="" style="endArrow=none;dashed=1;html=1;rounded=0;" edge="1" parent="1" source="6f3sIDz7gi58eeUQ-6ZS-8">
          <mxGeometry width="50" height="50" relative="1" as="geometry">
            <mxPoint x="134.55" y="560" as="sourcePoint" />
            <mxPoint x="134.55" y="140" as="targetPoint" />
          </mxGeometry>
        </mxCell>
        <mxCell id="6f3sIDz7gi58eeUQ-6ZS-4" value="Controller" style="shape=umlLifeline;perimeter=lifelinePerimeter;whiteSpace=wrap;html=1;container=1;dropTarget=0;collapsible=0;recursiveResize=0;outlineConnect=0;portConstraint=eastwest;newEdgeStyle={&quot;curved&quot;:0,&quot;rounded&quot;:0};" vertex="1" parent="1">
          <mxGeometry x="610" y="120" width="100" height="880" as="geometry" />
        </mxCell>
        <mxCell id="6f3sIDz7gi58eeUQ-6ZS-5" value="" style="html=1;points=[[0,0,0,0,5],[0,1,0,0,-5],[1,0,0,0,5],[1,1,0,0,-5]];perimeter=orthogonalPerimeter;outlineConnect=0;targetShapes=umlLifeline;portConstraint=eastwest;newEdgeStyle={&quot;curved&quot;:0,&quot;rounded&quot;:0};" vertex="1" parent="6f3sIDz7gi58eeUQ-6ZS-4">
          <mxGeometry x="45" y="110" width="10" height="90" as="geometry" />
        </mxCell>
        <mxCell id="cycyZhaLHzzRpvqO6oZx-17" value="" style="html=1;points=[[0,0,0,0,5],[0,1,0,0,-5],[1,0,0,0,5],[1,1,0,0,-5]];perimeter=orthogonalPerimeter;outlineConnect=0;targetShapes=umlLifeline;portConstraint=eastwest;newEdgeStyle={&quot;curved&quot;:0,&quot;rounded&quot;:0};" vertex="1" parent="6f3sIDz7gi58eeUQ-6ZS-4">
          <mxGeometry x="45" y="250" width="10" height="80" as="geometry" />
        </mxCell>
        <mxCell id="6f3sIDz7gi58eeUQ-6ZS-6" value="1. Xem tài khoản" style="html=1;verticalAlign=bottom;endArrow=block;curved=0;rounded=0;" edge="1" parent="1" target="6f3sIDz7gi58eeUQ-6ZS-11">
          <mxGeometry width="80" relative="1" as="geometry">
            <mxPoint x="140" y="200" as="sourcePoint" />
            <mxPoint x="360" y="200" as="targetPoint" />
          </mxGeometry>
        </mxCell>
        <mxCell id="6f3sIDz7gi58eeUQ-6ZS-7" value="" style="endArrow=none;dashed=1;html=1;rounded=0;" edge="1" parent="1" target="6f3sIDz7gi58eeUQ-6ZS-8">
          <mxGeometry width="50" height="50" relative="1" as="geometry">
            <mxPoint x="135" y="1000" as="sourcePoint" />
            <mxPoint x="134.55" y="140" as="targetPoint" />
          </mxGeometry>
        </mxCell>
        <mxCell id="6f3sIDz7gi58eeUQ-6ZS-8" value="" style="html=1;points=[[0,0,0,0,5],[0,1,0,0,-5],[1,0,0,0,5],[1,1,0,0,-5]];perimeter=orthogonalPerimeter;outlineConnect=0;targetShapes=umlLifeline;portConstraint=eastwest;newEdgeStyle={&quot;curved&quot;:0,&quot;rounded&quot;:0};" vertex="1" parent="1">
          <mxGeometry x="130" y="200" width="10" height="780" as="geometry" />
        </mxCell>
        <mxCell id="6f3sIDz7gi58eeUQ-6ZS-9" value="1.2. Lấy thông tin tài khoản" style="html=1;verticalAlign=bottom;endArrow=block;curved=0;rounded=0;" edge="1" parent="1" source="6f3sIDz7gi58eeUQ-6ZS-11">
          <mxGeometry width="80" relative="1" as="geometry">
            <mxPoint x="385" y="230" as="sourcePoint" />
            <mxPoint x="655" y="230" as="targetPoint" />
          </mxGeometry>
        </mxCell>
        <mxCell id="6f3sIDz7gi58eeUQ-6ZS-11" value="" style="html=1;points=[[0,0,0,0,5],[0,1,0,0,-5],[1,0,0,0,5],[1,1,0,0,-5]];perimeter=orthogonalPerimeter;outlineConnect=0;targetShapes=umlLifeline;portConstraint=eastwest;newEdgeStyle={&quot;curved&quot;:0,&quot;rounded&quot;:0};" vertex="1" parent="1">
          <mxGeometry x="385" y="200" width="10" height="120" as="geometry" />
        </mxCell>
        <mxCell id="6f3sIDz7gi58eeUQ-6ZS-12" value="Cơ sở dữ liệu" style="shape=umlLifeline;perimeter=lifelinePerimeter;whiteSpace=wrap;html=1;container=1;dropTarget=0;collapsible=0;recursiveResize=0;outlineConnect=0;portConstraint=eastwest;newEdgeStyle={&quot;curved&quot;:0,&quot;rounded&quot;:0};" vertex="1" parent="1">
          <mxGeometry x="870" y="120" width="100" height="880" as="geometry" />
        </mxCell>
        <mxCell id="6f3sIDz7gi58eeUQ-6ZS-13" value="" style="html=1;points=[[0,0,0,0,5],[0,1,0,0,-5],[1,0,0,0,5],[1,1,0,0,-5]];perimeter=orthogonalPerimeter;outlineConnect=0;targetShapes=umlLifeline;portConstraint=eastwest;newEdgeStyle={&quot;curved&quot;:0,&quot;rounded&quot;:0};" vertex="1" parent="6f3sIDz7gi58eeUQ-6ZS-12">
          <mxGeometry x="45" y="120" width="10" height="50" as="geometry" />
        </mxCell>
        <mxCell id="cycyZhaLHzzRpvqO6oZx-16" value="" style="html=1;points=[[0,0,0,0,5],[0,1,0,0,-5],[1,0,0,0,5],[1,1,0,0,-5]];perimeter=orthogonalPerimeter;outlineConnect=0;targetShapes=umlLifeline;portConstraint=eastwest;newEdgeStyle={&quot;curved&quot;:0,&quot;rounded&quot;:0};" vertex="1" parent="6f3sIDz7gi58eeUQ-6ZS-12">
          <mxGeometry x="45" y="260" width="10" height="50" as="geometry" />
        </mxCell>
        <mxCell id="6f3sIDz7gi58eeUQ-6ZS-14" value="1.3. Lấy thông tin tài khoản" style="html=1;verticalAlign=bottom;endArrow=block;curved=0;rounded=0;" edge="1" parent="1">
          <mxGeometry width="80" relative="1" as="geometry">
            <mxPoint x="665" y="240" as="sourcePoint" />
            <mxPoint x="919.5000000000002" y="240" as="targetPoint" />
          </mxGeometry>
        </mxCell>
        <mxCell id="6f3sIDz7gi58eeUQ-6ZS-15" value="1.4. Trả về kết quả" style="html=1;verticalAlign=bottom;endArrow=open;dashed=1;endSize=8;curved=0;rounded=0;" edge="1" parent="1">
          <mxGeometry relative="1" as="geometry">
            <mxPoint x="915" y="280" as="sourcePoint" />
            <mxPoint x="665" y="280" as="targetPoint" />
          </mxGeometry>
        </mxCell>
        <mxCell id="6f3sIDz7gi58eeUQ-6ZS-16" value="1.5. Trả về thông tin tài khoản" style="html=1;verticalAlign=bottom;endArrow=open;dashed=1;endSize=8;curved=0;rounded=0;" edge="1" parent="1">
          <mxGeometry relative="1" as="geometry">
            <mxPoint x="655" y="310" as="sourcePoint" />
            <mxPoint x="395" y="310" as="targetPoint" />
          </mxGeometry>
        </mxCell>
        <mxCell id="6WGsAq4PlEFNZqz3qkh--2" value="2. Thêm tài khoản" style="html=1;verticalAlign=bottom;endArrow=block;curved=0;rounded=0;" edge="1" parent="1">
          <mxGeometry width="80" relative="1" as="geometry">
            <mxPoint x="140" y="340" as="sourcePoint" />
            <mxPoint x="385" y="340" as="targetPoint" />
          </mxGeometry>
        </mxCell>
        <mxCell id="6WGsAq4PlEFNZqz3qkh--3" value="2.1. Gửi thông tin tài khoản" style="html=1;verticalAlign=bottom;endArrow=block;curved=0;rounded=0;" edge="1" parent="1">
          <mxGeometry width="80" relative="1" as="geometry">
            <mxPoint x="395" y="370" as="sourcePoint" />
            <mxPoint x="655" y="370" as="targetPoint" />
          </mxGeometry>
        </mxCell>
        <mxCell id="Fs29CMIopYWNn7_qmQlP-1" value="2.2. Thêm tài khoản" style="html=1;verticalAlign=bottom;endArrow=block;curved=0;rounded=0;" edge="1" parent="1">
          <mxGeometry width="80" relative="1" as="geometry">
            <mxPoint x="665" y="380" as="sourcePoint" />
            <mxPoint x="915" y="380" as="targetPoint" />
          </mxGeometry>
        </mxCell>
        <mxCell id="q8aTZ7EG90IcPltQt8Bo-1" value="2.3. Trả về kết quả" style="html=1;verticalAlign=bottom;endArrow=open;dashed=1;endSize=8;curved=0;rounded=0;" edge="1" parent="1">
          <mxGeometry relative="1" as="geometry">
            <mxPoint x="915" y="420" as="sourcePoint" />
            <mxPoint x="665" y="420" as="targetPoint" />
          </mxGeometry>
        </mxCell>
        <mxCell id="cycyZhaLHzzRpvqO6oZx-9" value="2.4. Trả về kết quả" style="html=1;verticalAlign=bottom;endArrow=open;dashed=1;endSize=8;curved=0;rounded=0;" edge="1" parent="1">
          <mxGeometry relative="1" as="geometry">
            <mxPoint x="655" y="440" as="sourcePoint" />
            <mxPoint x="395" y="440" as="targetPoint" />
          </mxGeometry>
        </mxCell>
        <mxCell id="cycyZhaLHzzRpvqO6oZx-19" value="" style="html=1;points=[[0,0,0,0,5],[0,1,0,0,-5],[1,0,0,0,5],[1,1,0,0,-5]];perimeter=orthogonalPerimeter;outlineConnect=0;targetShapes=umlLifeline;portConstraint=eastwest;newEdgeStyle={&quot;curved&quot;:0,&quot;rounded&quot;:0};" vertex="1" parent="1">
          <mxGeometry x="385" y="490" width="10" height="220" as="geometry" />
        </mxCell>
        <mxCell id="cycyZhaLHzzRpvqO6oZx-18" value="3. Sửa tài khoản" style="html=1;verticalAlign=bottom;endArrow=block;curved=0;rounded=0;" edge="1" parent="1">
          <mxGeometry width="80" relative="1" as="geometry">
            <mxPoint x="140" y="490" as="sourcePoint" />
            <mxPoint x="385" y="490" as="targetPoint" />
          </mxGeometry>
        </mxCell>
        <mxCell id="cycyZhaLHzzRpvqO6oZx-20" value="3.1. Gửi thông tin tài khoản" style="html=1;verticalAlign=bottom;endArrow=block;curved=0;rounded=0;" edge="1" parent="1">
          <mxGeometry width="80" relative="1" as="geometry">
            <mxPoint x="395" y="508.82" as="sourcePoint" />
            <mxPoint x="655" y="508.82" as="targetPoint" />
          </mxGeometry>
        </mxCell>
        <mxCell id="cycyZhaLHzzRpvqO6oZx-21" value="3.2. Cập nhật thông tin tài khoản" style="html=1;verticalAlign=bottom;endArrow=block;curved=0;rounded=0;" edge="1" parent="1" target="Eg_695mmnkXLx3GuXq-i-2">
          <mxGeometry width="80" relative="1" as="geometry">
            <mxPoint x="665" y="530" as="sourcePoint" />
            <mxPoint x="910" y="530" as="targetPoint" />
          </mxGeometry>
        </mxCell>
        <mxCell id="cycyZhaLHzzRpvqO6oZx-25" value="3.3. Trả về kết quả" style="html=1;verticalAlign=bottom;endArrow=open;dashed=1;endSize=8;curved=0;rounded=0;" edge="1" parent="1" source="Eg_695mmnkXLx3GuXq-i-2">
          <mxGeometry relative="1" as="geometry">
            <mxPoint x="915" y="550" as="sourcePoint" />
            <mxPoint x="665" y="550" as="targetPoint" />
          </mxGeometry>
        </mxCell>
        <mxCell id="Eg_695mmnkXLx3GuXq-i-1" value="" style="html=1;points=[[0,0,0,0,5],[0,1,0,0,-5],[1,0,0,0,5],[1,1,0,0,-5]];perimeter=orthogonalPerimeter;outlineConnect=0;targetShapes=umlLifeline;portConstraint=eastwest;newEdgeStyle={&quot;curved&quot;:0,&quot;rounded&quot;:0};" vertex="1" parent="1">
          <mxGeometry x="655" y="510" width="10" height="200" as="geometry" />
        </mxCell>
        <mxCell id="SUffvWXJxno66aOvOdzw-1" value="&lt;b&gt;alt&lt;/b&gt;" style="shape=umlFrame;whiteSpace=wrap;html=1;pointerEvents=0;" vertex="1" parent="1">
          <mxGeometry x="230" y="560" width="510" height="130" as="geometry" />
        </mxCell>
        <mxCell id="hV1WJUq8QMbm3oQe4dZz-1" value="" style="endArrow=none;dashed=1;html=1;rounded=0;exitX=-0.003;exitY=0.495;exitDx=0;exitDy=0;exitPerimeter=0;entryX=1;entryY=0.556;entryDx=0;entryDy=0;entryPerimeter=0;" edge="1" parent="1">
          <mxGeometry width="50" height="50" relative="1" as="geometry">
            <mxPoint x="230.00000000000003" y="620" as="sourcePoint" />
            <mxPoint x="741.53" y="620.19" as="targetPoint" />
          </mxGeometry>
        </mxCell>
        <mxCell id="4yH4W89M5egsZODjW86v-1" value="[Sửa thành công]" style="text;html=1;align=center;verticalAlign=middle;whiteSpace=wrap;rounded=0;" vertex="1" parent="1">
          <mxGeometry x="230" y="590" width="120" height="30" as="geometry" />
        </mxCell>
        <mxCell id="cycyZhaLHzzRpvqO6oZx-26" value="3.4.1. Thông báo thành công" style="html=1;verticalAlign=bottom;endArrow=open;dashed=1;endSize=8;curved=0;rounded=0;" edge="1" parent="1">
          <mxGeometry relative="1" as="geometry">
            <mxPoint x="655" y="594.44" as="sourcePoint" />
            <mxPoint x="395" y="594.44" as="targetPoint" />
          </mxGeometry>
        </mxCell>
        <mxCell id="bJceECqR6Ul9gw7vdFyE-1" value="[Sửa không thành công]" style="text;html=1;align=center;verticalAlign=middle;whiteSpace=wrap;rounded=0;" vertex="1" parent="1">
          <mxGeometry x="230" y="620" width="135" height="30" as="geometry" />
        </mxCell>
        <mxCell id="bJceECqR6Ul9gw7vdFyE-2" value="3.4.2. Thông báo lỗi" style="html=1;verticalAlign=bottom;endArrow=open;dashed=1;endSize=8;curved=0;rounded=0;entryX=1;entryY=1;entryDx=0;entryDy=0;" edge="1" parent="1">
          <mxGeometry relative="1" as="geometry">
            <mxPoint x="655" y="660" as="sourcePoint" />
            <mxPoint x="395" y="660" as="targetPoint" />
          </mxGeometry>
        </mxCell>
        <mxCell id="DfK1MzqT6QQD1-Na6G2n-1" value="" style="html=1;points=[[0,0,0,0,5],[0,1,0,0,-5],[1,0,0,0,5],[1,1,0,0,-5]];perimeter=orthogonalPerimeter;outlineConnect=0;targetShapes=umlLifeline;portConstraint=eastwest;newEdgeStyle={&quot;curved&quot;:0,&quot;rounded&quot;:0};" vertex="1" parent="1">
          <mxGeometry x="385" y="730" width="10" height="250" as="geometry" />
        </mxCell>
        <mxCell id="DfK1MzqT6QQD1-Na6G2n-2" value="4. Xoá tài khoản" style="html=1;verticalAlign=bottom;endArrow=block;curved=0;rounded=0;" edge="1" parent="1">
          <mxGeometry width="80" relative="1" as="geometry">
            <mxPoint x="140" y="730" as="sourcePoint" />
            <mxPoint x="385" y="730" as="targetPoint" />
          </mxGeometry>
        </mxCell>
        <mxCell id="DfK1MzqT6QQD1-Na6G2n-3" value="4.1. Gửi thông tin tài khoản" style="html=1;verticalAlign=bottom;endArrow=block;curved=0;rounded=0;" edge="1" parent="1">
          <mxGeometry width="80" relative="1" as="geometry">
            <mxPoint x="395" y="750" as="sourcePoint" />
            <mxPoint x="655" y="750" as="targetPoint" />
          </mxGeometry>
        </mxCell>
        <mxCell id="DfK1MzqT6QQD1-Na6G2n-4" value="4.2. Xoá tài khoản" style="html=1;verticalAlign=bottom;endArrow=block;curved=0;rounded=0;" edge="1" parent="1">
          <mxGeometry width="80" relative="1" as="geometry">
            <mxPoint x="665" y="770" as="sourcePoint" />
            <mxPoint x="920" y="770" as="targetPoint" />
          </mxGeometry>
        </mxCell>
        <mxCell id="DfK1MzqT6QQD1-Na6G2n-5" value="4.3. Trả về kết quả" style="html=1;verticalAlign=bottom;endArrow=open;dashed=1;endSize=8;curved=0;rounded=0;" edge="1" parent="1">
          <mxGeometry relative="1" as="geometry">
            <mxPoint x="915" y="810" as="sourcePoint" />
            <mxPoint x="665" y="810" as="targetPoint" />
          </mxGeometry>
        </mxCell>
        <mxCell id="DfK1MzqT6QQD1-Na6G2n-6" value="" style="html=1;points=[[0,0,0,0,5],[0,1,0,0,-5],[1,0,0,0,5],[1,1,0,0,-5]];perimeter=orthogonalPerimeter;outlineConnect=0;targetShapes=umlLifeline;portConstraint=eastwest;newEdgeStyle={&quot;curved&quot;:0,&quot;rounded&quot;:0};" vertex="1" parent="1">
          <mxGeometry x="655" y="750" width="10" height="230" as="geometry" />
        </mxCell>
        <mxCell id="DfK1MzqT6QQD1-Na6G2n-7" value="" style="html=1;points=[[0,0,0,0,5],[0,1,0,0,-5],[1,0,0,0,5],[1,1,0,0,-5]];perimeter=orthogonalPerimeter;outlineConnect=0;targetShapes=umlLifeline;portConstraint=eastwest;newEdgeStyle={&quot;curved&quot;:0,&quot;rounded&quot;:0};" vertex="1" parent="1">
          <mxGeometry x="915" y="770" width="10" height="50" as="geometry" />
        </mxCell>
        <mxCell id="DfK1MzqT6QQD1-Na6G2n-8" value="&lt;b&gt;alt&lt;/b&gt;" style="shape=umlFrame;whiteSpace=wrap;html=1;pointerEvents=0;" vertex="1" parent="1">
          <mxGeometry x="230" y="820" width="510" height="130" as="geometry" />
        </mxCell>
        <mxCell id="DfK1MzqT6QQD1-Na6G2n-9" value="" style="endArrow=none;dashed=1;html=1;rounded=0;exitX=-0.003;exitY=0.495;exitDx=0;exitDy=0;exitPerimeter=0;entryX=1;entryY=0.556;entryDx=0;entryDy=0;entryPerimeter=0;" edge="1" parent="1">
          <mxGeometry width="50" height="50" relative="1" as="geometry">
            <mxPoint x="228.47000000000003" y="880" as="sourcePoint" />
            <mxPoint x="740" y="880.19" as="targetPoint" />
          </mxGeometry>
        </mxCell>
        <mxCell id="DfK1MzqT6QQD1-Na6G2n-10" value="[Xoá thành công]" style="text;html=1;align=center;verticalAlign=middle;whiteSpace=wrap;rounded=0;" vertex="1" parent="1">
          <mxGeometry x="230" y="850" width="120" height="30" as="geometry" />
        </mxCell>
        <mxCell id="DfK1MzqT6QQD1-Na6G2n-11" value="4.4.1. Thông báo thành công" style="html=1;verticalAlign=bottom;endArrow=open;dashed=1;endSize=8;curved=0;rounded=0;" edge="1" parent="1">
          <mxGeometry relative="1" as="geometry">
            <mxPoint x="655" y="854.44" as="sourcePoint" />
            <mxPoint x="395" y="854.44" as="targetPoint" />
          </mxGeometry>
        </mxCell>
        <mxCell id="DfK1MzqT6QQD1-Na6G2n-12" value="[Xoá không thành công]" style="text;html=1;align=center;verticalAlign=middle;whiteSpace=wrap;rounded=0;" vertex="1" parent="1">
          <mxGeometry x="230" y="890" width="135" height="30" as="geometry" />
        </mxCell>
        <mxCell id="DfK1MzqT6QQD1-Na6G2n-13" value="4.4.2. Thông báo lỗi" style="html=1;verticalAlign=bottom;endArrow=open;dashed=1;endSize=8;curved=0;rounded=0;entryX=1;entryY=1;entryDx=0;entryDy=0;" edge="1" parent="1">
          <mxGeometry relative="1" as="geometry">
            <mxPoint x="655" y="920" as="sourcePoint" />
            <mxPoint x="395" y="920" as="targetPoint" />
          </mxGeometry>
        </mxCell>
        <mxCell id="DfK1MzqT6QQD1-Na6G2n-14" value="" style="html=1;verticalAlign=bottom;endArrow=open;dashed=1;endSize=8;curved=0;rounded=0;" edge="1" parent="1" target="Eg_695mmnkXLx3GuXq-i-2">
          <mxGeometry relative="1" as="geometry">
            <mxPoint x="915" y="550" as="sourcePoint" />
            <mxPoint x="665" y="550" as="targetPoint" />
          </mxGeometry>
        </mxCell>
        <mxCell id="Eg_695mmnkXLx3GuXq-i-2" value="" style="html=1;points=[[0,0,0,0,5],[0,1,0,0,-5],[1,0,0,0,5],[1,1,0,0,-5]];perimeter=orthogonalPerimeter;outlineConnect=0;targetShapes=umlLifeline;portConstraint=eastwest;newEdgeStyle={&quot;curved&quot;:0,&quot;rounded&quot;:0};" vertex="1" parent="1">
          <mxGeometry x="915" y="530" width="10" height="50" as="geometry" />
        </mxCell>
      </root>
    </mxGraphModel>
  </diagram>
  <diagram id="VabKmel-v2OBDYg0ZHI_" name="ThichBTD">
    <mxGraphModel grid="1" page="1" gridSize="10" guides="1" tooltips="1" connect="1" arrows="1" fold="1" pageScale="1" pageWidth="850" pageHeight="1100" math="0" shadow="0">
      <root>
        <mxCell id="0" />
        <mxCell id="1" parent="0" />
        <mxCell id="_vEpxz4izvuoSwOfnhva-1" value="Giao diện" style="shape=umlLifeline;perimeter=lifelinePerimeter;whiteSpace=wrap;html=1;container=1;dropTarget=0;collapsible=0;recursiveResize=0;outlineConnect=0;portConstraint=eastwest;newEdgeStyle={&quot;curved&quot;:0,&quot;rounded&quot;:0};" vertex="1" parent="1">
          <mxGeometry x="330" y="90" width="120" height="510" as="geometry" />
        </mxCell>
        <mxCell id="_vEpxz4izvuoSwOfnhva-2" value="Người dùng" style="shape=umlActor;verticalLabelPosition=bottom;verticalAlign=top;html=1;" vertex="1" parent="1">
          <mxGeometry x="120" y="70" width="30" height="60" as="geometry" />
        </mxCell>
        <mxCell id="_vEpxz4izvuoSwOfnhva-3" value="" style="endArrow=none;dashed=1;html=1;rounded=0;" edge="1" parent="1" source="_vEpxz4izvuoSwOfnhva-8">
          <mxGeometry width="50" height="50" relative="1" as="geometry">
            <mxPoint x="134.55" y="560" as="sourcePoint" />
            <mxPoint x="134.55" y="140" as="targetPoint" />
          </mxGeometry>
        </mxCell>
        <mxCell id="_vEpxz4izvuoSwOfnhva-4" value="Controller" style="shape=umlLifeline;perimeter=lifelinePerimeter;whiteSpace=wrap;html=1;container=1;dropTarget=0;collapsible=0;recursiveResize=0;outlineConnect=0;portConstraint=eastwest;newEdgeStyle={&quot;curved&quot;:0,&quot;rounded&quot;:0};" vertex="1" parent="1">
          <mxGeometry x="610" y="90" width="100" height="510" as="geometry" />
        </mxCell>
        <mxCell id="_vEpxz4izvuoSwOfnhva-5" value="" style="html=1;points=[[0,0,0,0,5],[0,1,0,0,-5],[1,0,0,0,5],[1,1,0,0,-5]];perimeter=orthogonalPerimeter;outlineConnect=0;targetShapes=umlLifeline;portConstraint=eastwest;newEdgeStyle={&quot;curved&quot;:0,&quot;rounded&quot;:0};" vertex="1" parent="_vEpxz4izvuoSwOfnhva-4">
          <mxGeometry x="45" y="110" width="10" height="370" as="geometry" />
        </mxCell>
        <mxCell id="_vEpxz4izvuoSwOfnhva-6" value="1. Click button thích bài tuyển dụng" style="html=1;verticalAlign=bottom;endArrow=block;curved=0;rounded=0;" edge="1" parent="1" target="_vEpxz4izvuoSwOfnhva-11">
          <mxGeometry width="80" relative="1" as="geometry">
            <mxPoint x="140" y="200" as="sourcePoint" />
            <mxPoint x="360" y="200" as="targetPoint" />
          </mxGeometry>
        </mxCell>
        <mxCell id="_vEpxz4izvuoSwOfnhva-7" value="" style="endArrow=none;dashed=1;html=1;rounded=0;" edge="1" parent="1" target="_vEpxz4izvuoSwOfnhva-8">
          <mxGeometry width="50" height="50" relative="1" as="geometry">
            <mxPoint x="135" y="600" as="sourcePoint" />
            <mxPoint x="134.55" y="140" as="targetPoint" />
          </mxGeometry>
        </mxCell>
        <mxCell id="_vEpxz4izvuoSwOfnhva-8" value="" style="html=1;points=[[0,0,0,0,5],[0,1,0,0,-5],[1,0,0,0,5],[1,1,0,0,-5]];perimeter=orthogonalPerimeter;outlineConnect=0;targetShapes=umlLifeline;portConstraint=eastwest;newEdgeStyle={&quot;curved&quot;:0,&quot;rounded&quot;:0};" vertex="1" parent="1">
          <mxGeometry x="130" y="200" width="10" height="370" as="geometry" />
        </mxCell>
        <mxCell id="_vEpxz4izvuoSwOfnhva-9" value="2. Gửi thông tin bài tuyển dụng và người dùng" style="html=1;verticalAlign=bottom;endArrow=block;curved=0;rounded=0;" edge="1" parent="1">
          <mxGeometry width="80" relative="1" as="geometry">
            <mxPoint x="395" y="240" as="sourcePoint" />
            <mxPoint x="655" y="240" as="targetPoint" />
          </mxGeometry>
        </mxCell>
        <mxCell id="_vEpxz4izvuoSwOfnhva-10" value="" style="html=1;verticalAlign=bottom;endArrow=block;curved=0;rounded=0;" edge="1" parent="1" target="_vEpxz4izvuoSwOfnhva-11">
          <mxGeometry width="80" relative="1" as="geometry">
            <mxPoint x="385" y="230" as="sourcePoint" />
            <mxPoint x="655" y="230" as="targetPoint" />
          </mxGeometry>
        </mxCell>
        <mxCell id="_vEpxz4izvuoSwOfnhva-11" value="" style="html=1;points=[[0,0,0,0,5],[0,1,0,0,-5],[1,0,0,0,5],[1,1,0,0,-5]];perimeter=orthogonalPerimeter;outlineConnect=0;targetShapes=umlLifeline;portConstraint=eastwest;newEdgeStyle={&quot;curved&quot;:0,&quot;rounded&quot;:0};" vertex="1" parent="1">
          <mxGeometry x="385" y="200" width="10" height="370" as="geometry" />
        </mxCell>
        <mxCell id="_vEpxz4izvuoSwOfnhva-12" value="Cơ sở dữ liệu" style="shape=umlLifeline;perimeter=lifelinePerimeter;whiteSpace=wrap;html=1;container=1;dropTarget=0;collapsible=0;recursiveResize=0;outlineConnect=0;portConstraint=eastwest;newEdgeStyle={&quot;curved&quot;:0,&quot;rounded&quot;:0};" vertex="1" parent="1">
          <mxGeometry x="870" y="90" width="100" height="510" as="geometry" />
        </mxCell>
        <mxCell id="_vEpxz4izvuoSwOfnhva-13" value="" style="html=1;points=[[0,0,0,0,5],[0,1,0,0,-5],[1,0,0,0,5],[1,1,0,0,-5]];perimeter=orthogonalPerimeter;outlineConnect=0;targetShapes=umlLifeline;portConstraint=eastwest;newEdgeStyle={&quot;curved&quot;:0,&quot;rounded&quot;:0};" vertex="1" parent="_vEpxz4izvuoSwOfnhva-12">
          <mxGeometry x="45" y="110" width="10" height="370" as="geometry" />
        </mxCell>
        <mxCell id="_vEpxz4izvuoSwOfnhva-14" value="3. Gửi thông tin bài tuyển dụng và người dùng" style="html=1;verticalAlign=bottom;endArrow=block;curved=0;rounded=0;" edge="1" parent="1">
          <mxGeometry width="80" relative="1" as="geometry">
            <mxPoint x="665" y="280" as="sourcePoint" />
            <mxPoint x="915" y="280" as="targetPoint" />
          </mxGeometry>
        </mxCell>
        <mxCell id="_vEpxz4izvuoSwOfnhva-17" value="4. Trả về kết quả" style="html=1;verticalAlign=bottom;endArrow=open;dashed=1;endSize=8;curved=0;rounded=0;" edge="1" parent="1">
          <mxGeometry relative="1" as="geometry">
            <mxPoint x="915" y="320" as="sourcePoint" />
            <mxPoint x="665" y="320" as="targetPoint" />
          </mxGeometry>
        </mxCell>
        <mxCell id="_vEpxz4izvuoSwOfnhva-18" value="5. Đổi trạng thái thích bài tuyển dụng" style="html=1;verticalAlign=bottom;endArrow=open;dashed=1;endSize=8;curved=0;rounded=0;" edge="1" parent="1">
          <mxGeometry relative="1" as="geometry">
            <mxPoint x="655" y="360" as="sourcePoint" />
            <mxPoint x="395" y="360" as="targetPoint" />
          </mxGeometry>
        </mxCell>
        <mxCell id="VMesEDbm9O1Nqiu0MzD7-1" value="6. Click button bỏ thích bài tuyển dụng" style="html=1;verticalAlign=bottom;endArrow=block;curved=0;rounded=0;" edge="1" parent="1">
          <mxGeometry width="80" relative="1" as="geometry">
            <mxPoint x="140" y="400" as="sourcePoint" />
            <mxPoint x="385" y="400" as="targetPoint" />
          </mxGeometry>
        </mxCell>
        <mxCell id="VMesEDbm9O1Nqiu0MzD7-2" value="7. Gửi thông tin bài tuyển dụng và người dùng" style="html=1;verticalAlign=bottom;endArrow=block;curved=0;rounded=0;" edge="1" parent="1">
          <mxGeometry width="80" relative="1" as="geometry">
            <mxPoint x="395" y="430" as="sourcePoint" />
            <mxPoint x="655" y="430" as="targetPoint" />
          </mxGeometry>
        </mxCell>
        <mxCell id="VMesEDbm9O1Nqiu0MzD7-3" value="8. Gửi thông tin bài tuyển dụng và người dùng" style="html=1;verticalAlign=bottom;endArrow=block;curved=0;rounded=0;" edge="1" parent="1">
          <mxGeometry width="80" relative="1" as="geometry">
            <mxPoint x="665" y="460" as="sourcePoint" />
            <mxPoint x="915" y="460" as="targetPoint" />
          </mxGeometry>
        </mxCell>
        <mxCell id="VMesEDbm9O1Nqiu0MzD7-4" value="9. Trả về kết quả" style="html=1;verticalAlign=bottom;endArrow=open;dashed=1;endSize=8;curved=0;rounded=0;" edge="1" parent="1">
          <mxGeometry relative="1" as="geometry">
            <mxPoint x="915" y="500" as="sourcePoint" />
            <mxPoint x="665" y="500" as="targetPoint" />
          </mxGeometry>
        </mxCell>
        <mxCell id="VMesEDbm9O1Nqiu0MzD7-6" value="9. Đổi trạng thái thích bài tuyển dụng" style="html=1;verticalAlign=bottom;endArrow=open;dashed=1;endSize=8;curved=0;rounded=0;" edge="1" parent="1">
          <mxGeometry relative="1" as="geometry">
            <mxPoint x="655" y="530" as="sourcePoint" />
            <mxPoint x="395" y="530" as="targetPoint" />
          </mxGeometry>
        </mxCell>
      </root>
    </mxGraphModel>
  </diagram>
  <diagram id="pCISb6W1yCReB9EeSoCr" name="UngTuyen">
    <mxGraphModel grid="1" page="0" gridSize="10" guides="1" tooltips="1" connect="1" arrows="1" fold="1" pageScale="1" pageWidth="850" pageHeight="1100" math="0" shadow="0">
      <root>
        <mxCell id="0" />
        <mxCell id="1" parent="0" />
        <mxCell id="5rFtBwfvmlDmj9BWMB29-1" value="Giao diện" style="shape=umlLifeline;perimeter=lifelinePerimeter;whiteSpace=wrap;html=1;container=1;dropTarget=0;collapsible=0;recursiveResize=0;outlineConnect=0;portConstraint=eastwest;newEdgeStyle={&quot;curved&quot;:0,&quot;rounded&quot;:0};" vertex="1" parent="1">
          <mxGeometry x="330" y="90" width="120" height="470" as="geometry" />
        </mxCell>
        <mxCell id="5rFtBwfvmlDmj9BWMB29-2" value="Người dùng" style="shape=umlActor;verticalLabelPosition=bottom;verticalAlign=top;html=1;" vertex="1" parent="1">
          <mxGeometry x="120" y="70" width="30" height="60" as="geometry" />
        </mxCell>
        <mxCell id="5rFtBwfvmlDmj9BWMB29-3" value="" style="endArrow=none;dashed=1;html=1;rounded=0;" edge="1" parent="1" source="5rFtBwfvmlDmj9BWMB29-8">
          <mxGeometry width="50" height="50" relative="1" as="geometry">
            <mxPoint x="134.55" y="560" as="sourcePoint" />
            <mxPoint x="134.55" y="140" as="targetPoint" />
          </mxGeometry>
        </mxCell>
        <mxCell id="5rFtBwfvmlDmj9BWMB29-4" value="Controller" style="shape=umlLifeline;perimeter=lifelinePerimeter;whiteSpace=wrap;html=1;container=1;dropTarget=0;collapsible=0;recursiveResize=0;outlineConnect=0;portConstraint=eastwest;newEdgeStyle={&quot;curved&quot;:0,&quot;rounded&quot;:0};" vertex="1" parent="1">
          <mxGeometry x="610" y="90" width="100" height="470" as="geometry" />
        </mxCell>
        <mxCell id="5rFtBwfvmlDmj9BWMB29-5" value="" style="html=1;points=[[0,0,0,0,5],[0,1,0,0,-5],[1,0,0,0,5],[1,1,0,0,-5]];perimeter=orthogonalPerimeter;outlineConnect=0;targetShapes=umlLifeline;portConstraint=eastwest;newEdgeStyle={&quot;curved&quot;:0,&quot;rounded&quot;:0};" vertex="1" parent="5rFtBwfvmlDmj9BWMB29-4">
          <mxGeometry x="45" y="110" width="10" height="300" as="geometry" />
        </mxCell>
        <mxCell id="5rFtBwfvmlDmj9BWMB29-6" value="1. Click button ứng tuyển" style="html=1;verticalAlign=bottom;endArrow=block;curved=0;rounded=0;" edge="1" parent="1" target="5rFtBwfvmlDmj9BWMB29-11">
          <mxGeometry width="80" relative="1" as="geometry">
            <mxPoint x="140" y="200" as="sourcePoint" />
            <mxPoint x="360" y="200" as="targetPoint" />
          </mxGeometry>
        </mxCell>
        <mxCell id="5rFtBwfvmlDmj9BWMB29-7" value="" style="endArrow=none;dashed=1;html=1;rounded=0;" edge="1" parent="1" target="5rFtBwfvmlDmj9BWMB29-8">
          <mxGeometry width="50" height="50" relative="1" as="geometry">
            <mxPoint x="135" y="560" as="sourcePoint" />
            <mxPoint x="134.55" y="140" as="targetPoint" />
          </mxGeometry>
        </mxCell>
        <mxCell id="5rFtBwfvmlDmj9BWMB29-8" value="" style="html=1;points=[[0,0,0,0,5],[0,1,0,0,-5],[1,0,0,0,5],[1,1,0,0,-5]];perimeter=orthogonalPerimeter;outlineConnect=0;targetShapes=umlLifeline;portConstraint=eastwest;newEdgeStyle={&quot;curved&quot;:0,&quot;rounded&quot;:0};" vertex="1" parent="1">
          <mxGeometry x="130" y="200" width="10" height="300" as="geometry" />
        </mxCell>
        <mxCell id="5rFtBwfvmlDmj9BWMB29-9" value="4. Gửi thông tin bài tuyển dụng và CV" style="html=1;verticalAlign=bottom;endArrow=block;curved=0;rounded=0;" edge="1" parent="1">
          <mxGeometry width="80" relative="1" as="geometry">
            <mxPoint x="395" y="320" as="sourcePoint" />
            <mxPoint x="655" y="320" as="targetPoint" />
          </mxGeometry>
        </mxCell>
        <mxCell id="5rFtBwfvmlDmj9BWMB29-10" value="" style="html=1;verticalAlign=bottom;endArrow=block;curved=0;rounded=0;" edge="1" parent="1" target="5rFtBwfvmlDmj9BWMB29-11">
          <mxGeometry width="80" relative="1" as="geometry">
            <mxPoint x="385" y="230" as="sourcePoint" />
            <mxPoint x="655" y="230" as="targetPoint" />
          </mxGeometry>
        </mxCell>
        <mxCell id="5rFtBwfvmlDmj9BWMB29-11" value="" style="html=1;points=[[0,0,0,0,5],[0,1,0,0,-5],[1,0,0,0,5],[1,1,0,0,-5]];perimeter=orthogonalPerimeter;outlineConnect=0;targetShapes=umlLifeline;portConstraint=eastwest;newEdgeStyle={&quot;curved&quot;:0,&quot;rounded&quot;:0};" vertex="1" parent="1">
          <mxGeometry x="385" y="200" width="10" height="300" as="geometry" />
        </mxCell>
        <mxCell id="5rFtBwfvmlDmj9BWMB29-12" value="Cơ sở dữ liệu" style="shape=umlLifeline;perimeter=lifelinePerimeter;whiteSpace=wrap;html=1;container=1;dropTarget=0;collapsible=0;recursiveResize=0;outlineConnect=0;portConstraint=eastwest;newEdgeStyle={&quot;curved&quot;:0,&quot;rounded&quot;:0};" vertex="1" parent="1">
          <mxGeometry x="870" y="90" width="100" height="470" as="geometry" />
        </mxCell>
        <mxCell id="5rFtBwfvmlDmj9BWMB29-13" value="" style="html=1;points=[[0,0,0,0,5],[0,1,0,0,-5],[1,0,0,0,5],[1,1,0,0,-5]];perimeter=orthogonalPerimeter;outlineConnect=0;targetShapes=umlLifeline;portConstraint=eastwest;newEdgeStyle={&quot;curved&quot;:0,&quot;rounded&quot;:0};" vertex="1" parent="5rFtBwfvmlDmj9BWMB29-12">
          <mxGeometry x="45" y="110" width="10" height="300" as="geometry" />
        </mxCell>
        <mxCell id="5rFtBwfvmlDmj9BWMB29-14" value="5. Gửi thông tin bài tuyển dụng và CV" style="html=1;verticalAlign=bottom;endArrow=block;curved=0;rounded=0;" edge="1" parent="1" target="5rFtBwfvmlDmj9BWMB29-13">
          <mxGeometry width="80" relative="1" as="geometry">
            <mxPoint x="665" y="360" as="sourcePoint" />
            <mxPoint x="910" y="360" as="targetPoint" />
          </mxGeometry>
        </mxCell>
        <mxCell id="5rFtBwfvmlDmj9BWMB29-22" value="2. Yêu cầu chọn CV" style="html=1;verticalAlign=bottom;endArrow=open;dashed=1;endSize=8;curved=0;rounded=0;" edge="1" parent="1">
          <mxGeometry relative="1" as="geometry">
            <mxPoint x="385" y="240" as="sourcePoint" />
            <mxPoint x="140" y="240" as="targetPoint" />
          </mxGeometry>
        </mxCell>
        <mxCell id="5rFtBwfvmlDmj9BWMB29-23" value="3. Chọn CV và click button nộp hồ sơ ứng tuyển" style="html=1;verticalAlign=bottom;endArrow=block;curved=0;rounded=0;" edge="1" parent="1">
          <mxGeometry width="80" relative="1" as="geometry">
            <mxPoint x="140" y="280" as="sourcePoint" />
            <mxPoint x="385" y="280" as="targetPoint" />
          </mxGeometry>
        </mxCell>
        <mxCell id="5rFtBwfvmlDmj9BWMB29-25" value="6. Trả về kết quả" style="html=1;verticalAlign=bottom;endArrow=open;dashed=1;endSize=8;curved=0;rounded=0;" edge="1" parent="1" target="5rFtBwfvmlDmj9BWMB29-5">
          <mxGeometry relative="1" as="geometry">
            <mxPoint x="915" y="409.5" as="sourcePoint" />
            <mxPoint x="670" y="410" as="targetPoint" />
          </mxGeometry>
        </mxCell>
        <mxCell id="5rFtBwfvmlDmj9BWMB29-26" value="7. Đổi trạng thái ứng tuyển" style="html=1;verticalAlign=bottom;endArrow=open;dashed=1;endSize=8;curved=0;rounded=0;" edge="1" parent="1" source="5rFtBwfvmlDmj9BWMB29-5">
          <mxGeometry relative="1" as="geometry">
            <mxPoint x="645" y="440" as="sourcePoint" />
            <mxPoint x="395" y="440.5" as="targetPoint" />
          </mxGeometry>
        </mxCell>
      </root>
    </mxGraphModel>
  </diagram>
  <diagram id="0cxHcA-BDFofAZx3ZsV_" name="QLBTD">
    <mxGraphModel grid="1" page="0" gridSize="10" guides="1" tooltips="1" connect="1" arrows="1" fold="1" pageScale="1" pageWidth="850" pageHeight="1100" math="0" shadow="0">
      <root>
        <mxCell id="0" />
        <mxCell id="1" parent="0" />
        <mxCell id="J-LqLvE4uZfkT6ZQbfPE-1" value="Giao diện" style="shape=umlLifeline;perimeter=lifelinePerimeter;whiteSpace=wrap;html=1;container=1;dropTarget=0;collapsible=0;recursiveResize=0;outlineConnect=0;portConstraint=eastwest;newEdgeStyle={&quot;curved&quot;:0,&quot;rounded&quot;:0};" vertex="1" parent="1">
          <mxGeometry x="330" y="120" width="120" height="880" as="geometry" />
        </mxCell>
        <mxCell id="J-LqLvE4uZfkT6ZQbfPE-2" value="" style="html=1;points=[[0,0,0,0,5],[0,1,0,0,-5],[1,0,0,0,5],[1,1,0,0,-5]];perimeter=orthogonalPerimeter;outlineConnect=0;targetShapes=umlLifeline;portConstraint=eastwest;newEdgeStyle={&quot;curved&quot;:0,&quot;rounded&quot;:0};" vertex="1" parent="J-LqLvE4uZfkT6ZQbfPE-1">
          <mxGeometry x="55" y="220" width="10" height="110" as="geometry" />
        </mxCell>
        <mxCell id="J-LqLvE4uZfkT6ZQbfPE-3" value="Người dùng" style="shape=umlActor;verticalLabelPosition=bottom;verticalAlign=top;html=1;" vertex="1" parent="1">
          <mxGeometry x="120" y="90" width="30" height="60" as="geometry" />
        </mxCell>
        <mxCell id="J-LqLvE4uZfkT6ZQbfPE-4" value="" style="endArrow=none;dashed=1;html=1;rounded=0;" edge="1" parent="1" source="J-LqLvE4uZfkT6ZQbfPE-10">
          <mxGeometry width="50" height="50" relative="1" as="geometry">
            <mxPoint x="134.55" y="560" as="sourcePoint" />
            <mxPoint x="134.55" y="140" as="targetPoint" />
          </mxGeometry>
        </mxCell>
        <mxCell id="J-LqLvE4uZfkT6ZQbfPE-5" value="Controller" style="shape=umlLifeline;perimeter=lifelinePerimeter;whiteSpace=wrap;html=1;container=1;dropTarget=0;collapsible=0;recursiveResize=0;outlineConnect=0;portConstraint=eastwest;newEdgeStyle={&quot;curved&quot;:0,&quot;rounded&quot;:0};" vertex="1" parent="1">
          <mxGeometry x="610" y="120" width="100" height="880" as="geometry" />
        </mxCell>
        <mxCell id="J-LqLvE4uZfkT6ZQbfPE-6" value="" style="html=1;points=[[0,0,0,0,5],[0,1,0,0,-5],[1,0,0,0,5],[1,1,0,0,-5]];perimeter=orthogonalPerimeter;outlineConnect=0;targetShapes=umlLifeline;portConstraint=eastwest;newEdgeStyle={&quot;curved&quot;:0,&quot;rounded&quot;:0};" vertex="1" parent="J-LqLvE4uZfkT6ZQbfPE-5">
          <mxGeometry x="45" y="110" width="10" height="90" as="geometry" />
        </mxCell>
        <mxCell id="J-LqLvE4uZfkT6ZQbfPE-7" value="" style="html=1;points=[[0,0,0,0,5],[0,1,0,0,-5],[1,0,0,0,5],[1,1,0,0,-5]];perimeter=orthogonalPerimeter;outlineConnect=0;targetShapes=umlLifeline;portConstraint=eastwest;newEdgeStyle={&quot;curved&quot;:0,&quot;rounded&quot;:0};" vertex="1" parent="J-LqLvE4uZfkT6ZQbfPE-5">
          <mxGeometry x="45" y="250" width="10" height="80" as="geometry" />
        </mxCell>
        <mxCell id="J-LqLvE4uZfkT6ZQbfPE-8" value="1. Xem bài tuyển dụng" style="html=1;verticalAlign=bottom;endArrow=block;curved=0;rounded=0;" edge="1" parent="1" target="J-LqLvE4uZfkT6ZQbfPE-12">
          <mxGeometry width="80" relative="1" as="geometry">
            <mxPoint x="140" y="200" as="sourcePoint" />
            <mxPoint x="360" y="200" as="targetPoint" />
          </mxGeometry>
        </mxCell>
        <mxCell id="J-LqLvE4uZfkT6ZQbfPE-9" value="" style="endArrow=none;dashed=1;html=1;rounded=0;" edge="1" parent="1" target="J-LqLvE4uZfkT6ZQbfPE-10">
          <mxGeometry width="50" height="50" relative="1" as="geometry">
            <mxPoint x="135" y="1000" as="sourcePoint" />
            <mxPoint x="134.55" y="140" as="targetPoint" />
          </mxGeometry>
        </mxCell>
        <mxCell id="J-LqLvE4uZfkT6ZQbfPE-10" value="" style="html=1;points=[[0,0,0,0,5],[0,1,0,0,-5],[1,0,0,0,5],[1,1,0,0,-5]];perimeter=orthogonalPerimeter;outlineConnect=0;targetShapes=umlLifeline;portConstraint=eastwest;newEdgeStyle={&quot;curved&quot;:0,&quot;rounded&quot;:0};" vertex="1" parent="1">
          <mxGeometry x="130" y="200" width="10" height="780" as="geometry" />
        </mxCell>
        <mxCell id="J-LqLvE4uZfkT6ZQbfPE-11" value="1.2. Lấy thông tin bài tuyển dụng" style="html=1;verticalAlign=bottom;endArrow=block;curved=0;rounded=0;" edge="1" parent="1" source="J-LqLvE4uZfkT6ZQbfPE-12">
          <mxGeometry width="80" relative="1" as="geometry">
            <mxPoint x="385" y="230" as="sourcePoint" />
            <mxPoint x="655" y="230" as="targetPoint" />
          </mxGeometry>
        </mxCell>
        <mxCell id="J-LqLvE4uZfkT6ZQbfPE-12" value="" style="html=1;points=[[0,0,0,0,5],[0,1,0,0,-5],[1,0,0,0,5],[1,1,0,0,-5]];perimeter=orthogonalPerimeter;outlineConnect=0;targetShapes=umlLifeline;portConstraint=eastwest;newEdgeStyle={&quot;curved&quot;:0,&quot;rounded&quot;:0};" vertex="1" parent="1">
          <mxGeometry x="385" y="200" width="10" height="120" as="geometry" />
        </mxCell>
        <mxCell id="J-LqLvE4uZfkT6ZQbfPE-13" value="Cơ sở dữ liệu" style="shape=umlLifeline;perimeter=lifelinePerimeter;whiteSpace=wrap;html=1;container=1;dropTarget=0;collapsible=0;recursiveResize=0;outlineConnect=0;portConstraint=eastwest;newEdgeStyle={&quot;curved&quot;:0,&quot;rounded&quot;:0};" vertex="1" parent="1">
          <mxGeometry x="870" y="120" width="100" height="880" as="geometry" />
        </mxCell>
        <mxCell id="J-LqLvE4uZfkT6ZQbfPE-14" value="" style="html=1;points=[[0,0,0,0,5],[0,1,0,0,-5],[1,0,0,0,5],[1,1,0,0,-5]];perimeter=orthogonalPerimeter;outlineConnect=0;targetShapes=umlLifeline;portConstraint=eastwest;newEdgeStyle={&quot;curved&quot;:0,&quot;rounded&quot;:0};" vertex="1" parent="J-LqLvE4uZfkT6ZQbfPE-13">
          <mxGeometry x="45" y="120" width="10" height="50" as="geometry" />
        </mxCell>
        <mxCell id="J-LqLvE4uZfkT6ZQbfPE-15" value="" style="html=1;points=[[0,0,0,0,5],[0,1,0,0,-5],[1,0,0,0,5],[1,1,0,0,-5]];perimeter=orthogonalPerimeter;outlineConnect=0;targetShapes=umlLifeline;portConstraint=eastwest;newEdgeStyle={&quot;curved&quot;:0,&quot;rounded&quot;:0};" vertex="1" parent="J-LqLvE4uZfkT6ZQbfPE-13">
          <mxGeometry x="45" y="260" width="10" height="50" as="geometry" />
        </mxCell>
        <mxCell id="J-LqLvE4uZfkT6ZQbfPE-16" value="1.3. Lấy thông tin bài tuyển dụng" style="html=1;verticalAlign=bottom;endArrow=block;curved=0;rounded=0;" edge="1" parent="1">
          <mxGeometry width="80" relative="1" as="geometry">
            <mxPoint x="665" y="240" as="sourcePoint" />
            <mxPoint x="919.5000000000002" y="240" as="targetPoint" />
          </mxGeometry>
        </mxCell>
        <mxCell id="J-LqLvE4uZfkT6ZQbfPE-17" value="1.4. Trả về kết quả" style="html=1;verticalAlign=bottom;endArrow=open;dashed=1;endSize=8;curved=0;rounded=0;" edge="1" parent="1">
          <mxGeometry relative="1" as="geometry">
            <mxPoint x="915" y="280" as="sourcePoint" />
            <mxPoint x="665" y="280" as="targetPoint" />
          </mxGeometry>
        </mxCell>
        <mxCell id="J-LqLvE4uZfkT6ZQbfPE-18" value="1.5. Trả về thông tin bài tuyển dụng" style="html=1;verticalAlign=bottom;endArrow=open;dashed=1;endSize=8;curved=0;rounded=0;" edge="1" parent="1">
          <mxGeometry relative="1" as="geometry">
            <mxPoint x="655" y="310" as="sourcePoint" />
            <mxPoint x="395" y="310" as="targetPoint" />
          </mxGeometry>
        </mxCell>
        <mxCell id="J-LqLvE4uZfkT6ZQbfPE-19" value="2. Thêm bài tuyển dụng" style="html=1;verticalAlign=bottom;endArrow=block;curved=0;rounded=0;" edge="1" parent="1">
          <mxGeometry width="80" relative="1" as="geometry">
            <mxPoint x="140" y="340" as="sourcePoint" />
            <mxPoint x="385" y="340" as="targetPoint" />
          </mxGeometry>
        </mxCell>
        <mxCell id="J-LqLvE4uZfkT6ZQbfPE-20" value="2.1. Gửi thông tin bài tuyển dụng" style="html=1;verticalAlign=bottom;endArrow=block;curved=0;rounded=0;" edge="1" parent="1">
          <mxGeometry width="80" relative="1" as="geometry">
            <mxPoint x="395" y="370" as="sourcePoint" />
            <mxPoint x="655" y="370" as="targetPoint" />
          </mxGeometry>
        </mxCell>
        <mxCell id="J-LqLvE4uZfkT6ZQbfPE-21" value="2.2. Thêm bài tuyển dụng" style="html=1;verticalAlign=bottom;endArrow=block;curved=0;rounded=0;" edge="1" parent="1">
          <mxGeometry width="80" relative="1" as="geometry">
            <mxPoint x="665" y="380" as="sourcePoint" />
            <mxPoint x="915" y="380" as="targetPoint" />
          </mxGeometry>
        </mxCell>
        <mxCell id="J-LqLvE4uZfkT6ZQbfPE-22" value="2.3. Trả về kết quả" style="html=1;verticalAlign=bottom;endArrow=open;dashed=1;endSize=8;curved=0;rounded=0;" edge="1" parent="1">
          <mxGeometry relative="1" as="geometry">
            <mxPoint x="915" y="420" as="sourcePoint" />
            <mxPoint x="665" y="420" as="targetPoint" />
          </mxGeometry>
        </mxCell>
        <mxCell id="J-LqLvE4uZfkT6ZQbfPE-23" value="2.4. Trả về kết quả" style="html=1;verticalAlign=bottom;endArrow=open;dashed=1;endSize=8;curved=0;rounded=0;" edge="1" parent="1">
          <mxGeometry relative="1" as="geometry">
            <mxPoint x="655" y="440" as="sourcePoint" />
            <mxPoint x="395" y="440" as="targetPoint" />
          </mxGeometry>
        </mxCell>
        <mxCell id="J-LqLvE4uZfkT6ZQbfPE-24" value="" style="html=1;points=[[0,0,0,0,5],[0,1,0,0,-5],[1,0,0,0,5],[1,1,0,0,-5]];perimeter=orthogonalPerimeter;outlineConnect=0;targetShapes=umlLifeline;portConstraint=eastwest;newEdgeStyle={&quot;curved&quot;:0,&quot;rounded&quot;:0};" vertex="1" parent="1">
          <mxGeometry x="385" y="490" width="10" height="220" as="geometry" />
        </mxCell>
        <mxCell id="J-LqLvE4uZfkT6ZQbfPE-25" value="3. Sửa bài tuyển dụng" style="html=1;verticalAlign=bottom;endArrow=block;curved=0;rounded=0;" edge="1" parent="1">
          <mxGeometry width="80" relative="1" as="geometry">
            <mxPoint x="140" y="490" as="sourcePoint" />
            <mxPoint x="385" y="490" as="targetPoint" />
          </mxGeometry>
        </mxCell>
        <mxCell id="J-LqLvE4uZfkT6ZQbfPE-26" value="3.1. Gửi thông tin bài tuyển dụng" style="html=1;verticalAlign=bottom;endArrow=block;curved=0;rounded=0;" edge="1" parent="1">
          <mxGeometry width="80" relative="1" as="geometry">
            <mxPoint x="395" y="508.82" as="sourcePoint" />
            <mxPoint x="655" y="508.82" as="targetPoint" />
          </mxGeometry>
        </mxCell>
        <mxCell id="J-LqLvE4uZfkT6ZQbfPE-27" value="3.2. Cập nhật thông tin bài tuyển dụng" style="html=1;verticalAlign=bottom;endArrow=block;curved=0;rounded=0;" edge="1" parent="1" target="J-LqLvE4uZfkT6ZQbfPE-50">
          <mxGeometry width="80" relative="1" as="geometry">
            <mxPoint x="665" y="530" as="sourcePoint" />
            <mxPoint x="910" y="530" as="targetPoint" />
          </mxGeometry>
        </mxCell>
        <mxCell id="J-LqLvE4uZfkT6ZQbfPE-28" value="3.3. Trả về kết quả" style="html=1;verticalAlign=bottom;endArrow=open;dashed=1;endSize=8;curved=0;rounded=0;" edge="1" parent="1" source="J-LqLvE4uZfkT6ZQbfPE-50">
          <mxGeometry relative="1" as="geometry">
            <mxPoint x="915" y="550" as="sourcePoint" />
            <mxPoint x="665" y="550" as="targetPoint" />
          </mxGeometry>
        </mxCell>
        <mxCell id="J-LqLvE4uZfkT6ZQbfPE-29" value="" style="html=1;points=[[0,0,0,0,5],[0,1,0,0,-5],[1,0,0,0,5],[1,1,0,0,-5]];perimeter=orthogonalPerimeter;outlineConnect=0;targetShapes=umlLifeline;portConstraint=eastwest;newEdgeStyle={&quot;curved&quot;:0,&quot;rounded&quot;:0};" vertex="1" parent="1">
          <mxGeometry x="655" y="510" width="10" height="200" as="geometry" />
        </mxCell>
        <mxCell id="J-LqLvE4uZfkT6ZQbfPE-30" value="&lt;b&gt;alt&lt;/b&gt;" style="shape=umlFrame;whiteSpace=wrap;html=1;pointerEvents=0;" vertex="1" parent="1">
          <mxGeometry x="230" y="560" width="510" height="130" as="geometry" />
        </mxCell>
        <mxCell id="J-LqLvE4uZfkT6ZQbfPE-31" value="" style="endArrow=none;dashed=1;html=1;rounded=0;exitX=-0.003;exitY=0.495;exitDx=0;exitDy=0;exitPerimeter=0;entryX=1;entryY=0.556;entryDx=0;entryDy=0;entryPerimeter=0;" edge="1" parent="1">
          <mxGeometry width="50" height="50" relative="1" as="geometry">
            <mxPoint x="230.00000000000003" y="620" as="sourcePoint" />
            <mxPoint x="741.53" y="620.19" as="targetPoint" />
          </mxGeometry>
        </mxCell>
        <mxCell id="J-LqLvE4uZfkT6ZQbfPE-32" value="[Sửa thành công]" style="text;html=1;align=center;verticalAlign=middle;whiteSpace=wrap;rounded=0;" vertex="1" parent="1">
          <mxGeometry x="230" y="590" width="120" height="30" as="geometry" />
        </mxCell>
        <mxCell id="J-LqLvE4uZfkT6ZQbfPE-33" value="3.4.1. Thông báo thành công" style="html=1;verticalAlign=bottom;endArrow=open;dashed=1;endSize=8;curved=0;rounded=0;" edge="1" parent="1">
          <mxGeometry relative="1" as="geometry">
            <mxPoint x="655" y="594.44" as="sourcePoint" />
            <mxPoint x="395" y="594.44" as="targetPoint" />
          </mxGeometry>
        </mxCell>
        <mxCell id="J-LqLvE4uZfkT6ZQbfPE-34" value="[Sửa không thành công]" style="text;html=1;align=center;verticalAlign=middle;whiteSpace=wrap;rounded=0;" vertex="1" parent="1">
          <mxGeometry x="230" y="620" width="135" height="30" as="geometry" />
        </mxCell>
        <mxCell id="J-LqLvE4uZfkT6ZQbfPE-35" value="3.4.2. Thông báo lỗi" style="html=1;verticalAlign=bottom;endArrow=open;dashed=1;endSize=8;curved=0;rounded=0;entryX=1;entryY=1;entryDx=0;entryDy=0;" edge="1" parent="1">
          <mxGeometry relative="1" as="geometry">
            <mxPoint x="655" y="660" as="sourcePoint" />
            <mxPoint x="395" y="660" as="targetPoint" />
          </mxGeometry>
        </mxCell>
        <mxCell id="J-LqLvE4uZfkT6ZQbfPE-36" value="" style="html=1;points=[[0,0,0,0,5],[0,1,0,0,-5],[1,0,0,0,5],[1,1,0,0,-5]];perimeter=orthogonalPerimeter;outlineConnect=0;targetShapes=umlLifeline;portConstraint=eastwest;newEdgeStyle={&quot;curved&quot;:0,&quot;rounded&quot;:0};" vertex="1" parent="1">
          <mxGeometry x="385" y="730" width="10" height="250" as="geometry" />
        </mxCell>
        <mxCell id="J-LqLvE4uZfkT6ZQbfPE-37" value="4. Xoá bài tuyển dụng" style="html=1;verticalAlign=bottom;endArrow=block;curved=0;rounded=0;" edge="1" parent="1">
          <mxGeometry width="80" relative="1" as="geometry">
            <mxPoint x="140" y="730" as="sourcePoint" />
            <mxPoint x="385" y="730" as="targetPoint" />
          </mxGeometry>
        </mxCell>
        <mxCell id="J-LqLvE4uZfkT6ZQbfPE-38" value="4.1. Gửi thông tin bài tuyển dụng" style="html=1;verticalAlign=bottom;endArrow=block;curved=0;rounded=0;" edge="1" parent="1">
          <mxGeometry width="80" relative="1" as="geometry">
            <mxPoint x="395" y="750" as="sourcePoint" />
            <mxPoint x="655" y="750" as="targetPoint" />
          </mxGeometry>
        </mxCell>
        <mxCell id="J-LqLvE4uZfkT6ZQbfPE-39" value="4.2. Xoá bài tuyển dụng" style="html=1;verticalAlign=bottom;endArrow=block;curved=0;rounded=0;" edge="1" parent="1">
          <mxGeometry width="80" relative="1" as="geometry">
            <mxPoint x="665" y="770" as="sourcePoint" />
            <mxPoint x="920" y="770" as="targetPoint" />
          </mxGeometry>
        </mxCell>
        <mxCell id="J-LqLvE4uZfkT6ZQbfPE-40" value="4.3. Trả về kết quả" style="html=1;verticalAlign=bottom;endArrow=open;dashed=1;endSize=8;curved=0;rounded=0;" edge="1" parent="1">
          <mxGeometry relative="1" as="geometry">
            <mxPoint x="915" y="810" as="sourcePoint" />
            <mxPoint x="665" y="810" as="targetPoint" />
          </mxGeometry>
        </mxCell>
        <mxCell id="J-LqLvE4uZfkT6ZQbfPE-41" value="" style="html=1;points=[[0,0,0,0,5],[0,1,0,0,-5],[1,0,0,0,5],[1,1,0,0,-5]];perimeter=orthogonalPerimeter;outlineConnect=0;targetShapes=umlLifeline;portConstraint=eastwest;newEdgeStyle={&quot;curved&quot;:0,&quot;rounded&quot;:0};" vertex="1" parent="1">
          <mxGeometry x="655" y="750" width="10" height="230" as="geometry" />
        </mxCell>
        <mxCell id="J-LqLvE4uZfkT6ZQbfPE-42" value="" style="html=1;points=[[0,0,0,0,5],[0,1,0,0,-5],[1,0,0,0,5],[1,1,0,0,-5]];perimeter=orthogonalPerimeter;outlineConnect=0;targetShapes=umlLifeline;portConstraint=eastwest;newEdgeStyle={&quot;curved&quot;:0,&quot;rounded&quot;:0};" vertex="1" parent="1">
          <mxGeometry x="915" y="770" width="10" height="50" as="geometry" />
        </mxCell>
        <mxCell id="J-LqLvE4uZfkT6ZQbfPE-43" value="&lt;b&gt;alt&lt;/b&gt;" style="shape=umlFrame;whiteSpace=wrap;html=1;pointerEvents=0;" vertex="1" parent="1">
          <mxGeometry x="230" y="820" width="510" height="130" as="geometry" />
        </mxCell>
        <mxCell id="J-LqLvE4uZfkT6ZQbfPE-44" value="" style="endArrow=none;dashed=1;html=1;rounded=0;exitX=-0.003;exitY=0.495;exitDx=0;exitDy=0;exitPerimeter=0;entryX=1;entryY=0.556;entryDx=0;entryDy=0;entryPerimeter=0;" edge="1" parent="1">
          <mxGeometry width="50" height="50" relative="1" as="geometry">
            <mxPoint x="228.47000000000003" y="880" as="sourcePoint" />
            <mxPoint x="740" y="880.19" as="targetPoint" />
          </mxGeometry>
        </mxCell>
        <mxCell id="J-LqLvE4uZfkT6ZQbfPE-45" value="[Xoá thành công]" style="text;html=1;align=center;verticalAlign=middle;whiteSpace=wrap;rounded=0;" vertex="1" parent="1">
          <mxGeometry x="230" y="850" width="120" height="30" as="geometry" />
        </mxCell>
        <mxCell id="J-LqLvE4uZfkT6ZQbfPE-46" value="4.4.1. Thông báo thành công" style="html=1;verticalAlign=bottom;endArrow=open;dashed=1;endSize=8;curved=0;rounded=0;" edge="1" parent="1">
          <mxGeometry relative="1" as="geometry">
            <mxPoint x="655" y="854.44" as="sourcePoint" />
            <mxPoint x="395" y="854.44" as="targetPoint" />
          </mxGeometry>
        </mxCell>
        <mxCell id="J-LqLvE4uZfkT6ZQbfPE-47" value="[Xoá không thành công]" style="text;html=1;align=center;verticalAlign=middle;whiteSpace=wrap;rounded=0;" vertex="1" parent="1">
          <mxGeometry x="230" y="890" width="135" height="30" as="geometry" />
        </mxCell>
        <mxCell id="J-LqLvE4uZfkT6ZQbfPE-48" value="4.4.2. Thông báo lỗi" style="html=1;verticalAlign=bottom;endArrow=open;dashed=1;endSize=8;curved=0;rounded=0;entryX=1;entryY=1;entryDx=0;entryDy=0;" edge="1" parent="1">
          <mxGeometry relative="1" as="geometry">
            <mxPoint x="655" y="920" as="sourcePoint" />
            <mxPoint x="395" y="920" as="targetPoint" />
          </mxGeometry>
        </mxCell>
        <mxCell id="J-LqLvE4uZfkT6ZQbfPE-49" value="" style="html=1;verticalAlign=bottom;endArrow=open;dashed=1;endSize=8;curved=0;rounded=0;" edge="1" parent="1" target="J-LqLvE4uZfkT6ZQbfPE-50">
          <mxGeometry relative="1" as="geometry">
            <mxPoint x="915" y="550" as="sourcePoint" />
            <mxPoint x="665" y="550" as="targetPoint" />
          </mxGeometry>
        </mxCell>
        <mxCell id="J-LqLvE4uZfkT6ZQbfPE-50" value="" style="html=1;points=[[0,0,0,0,5],[0,1,0,0,-5],[1,0,0,0,5],[1,1,0,0,-5]];perimeter=orthogonalPerimeter;outlineConnect=0;targetShapes=umlLifeline;portConstraint=eastwest;newEdgeStyle={&quot;curved&quot;:0,&quot;rounded&quot;:0};" vertex="1" parent="1">
          <mxGeometry x="915" y="530" width="10" height="50" as="geometry" />
        </mxCell>
      </root>
    </mxGraphModel>
  </diagram>
  <diagram id="mxPrOdfMx2FvWTcoz-ja" name="QLNN">
    <mxGraphModel grid="1" page="1" gridSize="10" guides="1" tooltips="1" connect="1" arrows="1" fold="1" pageScale="1" pageWidth="850" pageHeight="1100" math="0" shadow="0">
      <root>
        <mxCell id="0" />
        <mxCell id="1" parent="0" />
        <mxCell id="7Zh1SLStp5MP6-WGvkbm-51" value="Giao diện" style="shape=umlLifeline;perimeter=lifelinePerimeter;whiteSpace=wrap;html=1;container=1;dropTarget=0;collapsible=0;recursiveResize=0;outlineConnect=0;portConstraint=eastwest;newEdgeStyle={&quot;curved&quot;:0,&quot;rounded&quot;:0};" vertex="1" parent="1">
          <mxGeometry x="340" y="130" width="120" height="880" as="geometry" />
        </mxCell>
        <mxCell id="7Zh1SLStp5MP6-WGvkbm-52" value="" style="html=1;points=[[0,0,0,0,5],[0,1,0,0,-5],[1,0,0,0,5],[1,1,0,0,-5]];perimeter=orthogonalPerimeter;outlineConnect=0;targetShapes=umlLifeline;portConstraint=eastwest;newEdgeStyle={&quot;curved&quot;:0,&quot;rounded&quot;:0};" vertex="1" parent="7Zh1SLStp5MP6-WGvkbm-51">
          <mxGeometry x="55" y="220" width="10" height="110" as="geometry" />
        </mxCell>
        <mxCell id="7Zh1SLStp5MP6-WGvkbm-53" value="Người dùng" style="shape=umlActor;verticalLabelPosition=bottom;verticalAlign=top;html=1;" vertex="1" parent="1">
          <mxGeometry x="130" y="100" width="30" height="60" as="geometry" />
        </mxCell>
        <mxCell id="7Zh1SLStp5MP6-WGvkbm-54" value="" style="endArrow=none;dashed=1;html=1;rounded=0;" edge="1" parent="1" source="7Zh1SLStp5MP6-WGvkbm-60">
          <mxGeometry width="50" height="50" relative="1" as="geometry">
            <mxPoint x="144.55" y="570" as="sourcePoint" />
            <mxPoint x="144.55" y="150" as="targetPoint" />
          </mxGeometry>
        </mxCell>
        <mxCell id="7Zh1SLStp5MP6-WGvkbm-55" value="Controller" style="shape=umlLifeline;perimeter=lifelinePerimeter;whiteSpace=wrap;html=1;container=1;dropTarget=0;collapsible=0;recursiveResize=0;outlineConnect=0;portConstraint=eastwest;newEdgeStyle={&quot;curved&quot;:0,&quot;rounded&quot;:0};" vertex="1" parent="1">
          <mxGeometry x="620" y="130" width="100" height="880" as="geometry" />
        </mxCell>
        <mxCell id="7Zh1SLStp5MP6-WGvkbm-56" value="" style="html=1;points=[[0,0,0,0,5],[0,1,0,0,-5],[1,0,0,0,5],[1,1,0,0,-5]];perimeter=orthogonalPerimeter;outlineConnect=0;targetShapes=umlLifeline;portConstraint=eastwest;newEdgeStyle={&quot;curved&quot;:0,&quot;rounded&quot;:0};" vertex="1" parent="7Zh1SLStp5MP6-WGvkbm-55">
          <mxGeometry x="45" y="110" width="10" height="90" as="geometry" />
        </mxCell>
        <mxCell id="7Zh1SLStp5MP6-WGvkbm-57" value="" style="html=1;points=[[0,0,0,0,5],[0,1,0,0,-5],[1,0,0,0,5],[1,1,0,0,-5]];perimeter=orthogonalPerimeter;outlineConnect=0;targetShapes=umlLifeline;portConstraint=eastwest;newEdgeStyle={&quot;curved&quot;:0,&quot;rounded&quot;:0};" vertex="1" parent="7Zh1SLStp5MP6-WGvkbm-55">
          <mxGeometry x="45" y="250" width="10" height="80" as="geometry" />
        </mxCell>
        <mxCell id="7Zh1SLStp5MP6-WGvkbm-58" value="1. Xem danh sách ngành nghề" style="html=1;verticalAlign=bottom;endArrow=block;curved=0;rounded=0;" edge="1" parent="1" target="7Zh1SLStp5MP6-WGvkbm-62">
          <mxGeometry width="80" relative="1" as="geometry">
            <mxPoint x="150" y="210" as="sourcePoint" />
            <mxPoint x="370" y="210" as="targetPoint" />
          </mxGeometry>
        </mxCell>
        <mxCell id="7Zh1SLStp5MP6-WGvkbm-59" value="" style="endArrow=none;dashed=1;html=1;rounded=0;" edge="1" parent="1" target="7Zh1SLStp5MP6-WGvkbm-60">
          <mxGeometry width="50" height="50" relative="1" as="geometry">
            <mxPoint x="145" y="1010" as="sourcePoint" />
            <mxPoint x="144.55" y="150" as="targetPoint" />
          </mxGeometry>
        </mxCell>
        <mxCell id="7Zh1SLStp5MP6-WGvkbm-60" value="" style="html=1;points=[[0,0,0,0,5],[0,1,0,0,-5],[1,0,0,0,5],[1,1,0,0,-5]];perimeter=orthogonalPerimeter;outlineConnect=0;targetShapes=umlLifeline;portConstraint=eastwest;newEdgeStyle={&quot;curved&quot;:0,&quot;rounded&quot;:0};" vertex="1" parent="1">
          <mxGeometry x="140" y="210" width="10" height="780" as="geometry" />
        </mxCell>
        <mxCell id="7Zh1SLStp5MP6-WGvkbm-61" value="1.2. Lấy thông tin ngành nghề" style="html=1;verticalAlign=bottom;endArrow=block;curved=0;rounded=0;" edge="1" parent="1" source="7Zh1SLStp5MP6-WGvkbm-62">
          <mxGeometry width="80" relative="1" as="geometry">
            <mxPoint x="395" y="240" as="sourcePoint" />
            <mxPoint x="665" y="240" as="targetPoint" />
          </mxGeometry>
        </mxCell>
        <mxCell id="7Zh1SLStp5MP6-WGvkbm-62" value="" style="html=1;points=[[0,0,0,0,5],[0,1,0,0,-5],[1,0,0,0,5],[1,1,0,0,-5]];perimeter=orthogonalPerimeter;outlineConnect=0;targetShapes=umlLifeline;portConstraint=eastwest;newEdgeStyle={&quot;curved&quot;:0,&quot;rounded&quot;:0};" vertex="1" parent="1">
          <mxGeometry x="395" y="210" width="10" height="120" as="geometry" />
        </mxCell>
        <mxCell id="7Zh1SLStp5MP6-WGvkbm-63" value="Cơ sở dữ liệu" style="shape=umlLifeline;perimeter=lifelinePerimeter;whiteSpace=wrap;html=1;container=1;dropTarget=0;collapsible=0;recursiveResize=0;outlineConnect=0;portConstraint=eastwest;newEdgeStyle={&quot;curved&quot;:0,&quot;rounded&quot;:0};" vertex="1" parent="1">
          <mxGeometry x="880" y="130" width="100" height="880" as="geometry" />
        </mxCell>
        <mxCell id="7Zh1SLStp5MP6-WGvkbm-64" value="" style="html=1;points=[[0,0,0,0,5],[0,1,0,0,-5],[1,0,0,0,5],[1,1,0,0,-5]];perimeter=orthogonalPerimeter;outlineConnect=0;targetShapes=umlLifeline;portConstraint=eastwest;newEdgeStyle={&quot;curved&quot;:0,&quot;rounded&quot;:0};" vertex="1" parent="7Zh1SLStp5MP6-WGvkbm-63">
          <mxGeometry x="45" y="120" width="10" height="50" as="geometry" />
        </mxCell>
        <mxCell id="7Zh1SLStp5MP6-WGvkbm-65" value="" style="html=1;points=[[0,0,0,0,5],[0,1,0,0,-5],[1,0,0,0,5],[1,1,0,0,-5]];perimeter=orthogonalPerimeter;outlineConnect=0;targetShapes=umlLifeline;portConstraint=eastwest;newEdgeStyle={&quot;curved&quot;:0,&quot;rounded&quot;:0};" vertex="1" parent="7Zh1SLStp5MP6-WGvkbm-63">
          <mxGeometry x="45" y="260" width="10" height="50" as="geometry" />
        </mxCell>
        <mxCell id="7Zh1SLStp5MP6-WGvkbm-66" value="1.3. Lấy thông tin ngành nghề" style="html=1;verticalAlign=bottom;endArrow=block;curved=0;rounded=0;" edge="1" parent="1">
          <mxGeometry width="80" relative="1" as="geometry">
            <mxPoint x="675" y="250" as="sourcePoint" />
            <mxPoint x="929.5000000000002" y="250" as="targetPoint" />
          </mxGeometry>
        </mxCell>
        <mxCell id="7Zh1SLStp5MP6-WGvkbm-67" value="1.4. Trả về kết quả" style="html=1;verticalAlign=bottom;endArrow=open;dashed=1;endSize=8;curved=0;rounded=0;" edge="1" parent="1">
          <mxGeometry relative="1" as="geometry">
            <mxPoint x="925" y="290" as="sourcePoint" />
            <mxPoint x="675" y="290" as="targetPoint" />
          </mxGeometry>
        </mxCell>
        <mxCell id="7Zh1SLStp5MP6-WGvkbm-68" value="1.5. Trả về thông tin tài khoản" style="html=1;verticalAlign=bottom;endArrow=open;dashed=1;endSize=8;curved=0;rounded=0;" edge="1" parent="1">
          <mxGeometry relative="1" as="geometry">
            <mxPoint x="665" y="320" as="sourcePoint" />
            <mxPoint x="405" y="320" as="targetPoint" />
          </mxGeometry>
        </mxCell>
        <mxCell id="7Zh1SLStp5MP6-WGvkbm-69" value="2. Thêm ngành nghề" style="html=1;verticalAlign=bottom;endArrow=block;curved=0;rounded=0;" edge="1" parent="1">
          <mxGeometry width="80" relative="1" as="geometry">
            <mxPoint x="150" y="350" as="sourcePoint" />
            <mxPoint x="395" y="350" as="targetPoint" />
          </mxGeometry>
        </mxCell>
        <mxCell id="7Zh1SLStp5MP6-WGvkbm-70" value="2.1. Gửi thông tin ngành nghề" style="html=1;verticalAlign=bottom;endArrow=block;curved=0;rounded=0;" edge="1" parent="1">
          <mxGeometry width="80" relative="1" as="geometry">
            <mxPoint x="405" y="380" as="sourcePoint" />
            <mxPoint x="665" y="380" as="targetPoint" />
          </mxGeometry>
        </mxCell>
        <mxCell id="7Zh1SLStp5MP6-WGvkbm-71" value="2.2. Thêm ngành nghề" style="html=1;verticalAlign=bottom;endArrow=block;curved=0;rounded=0;" edge="1" parent="1">
          <mxGeometry width="80" relative="1" as="geometry">
            <mxPoint x="675" y="390" as="sourcePoint" />
            <mxPoint x="925" y="390" as="targetPoint" />
          </mxGeometry>
        </mxCell>
        <mxCell id="7Zh1SLStp5MP6-WGvkbm-72" value="2.3. Trả về kết quả" style="html=1;verticalAlign=bottom;endArrow=open;dashed=1;endSize=8;curved=0;rounded=0;" edge="1" parent="1">
          <mxGeometry relative="1" as="geometry">
            <mxPoint x="925" y="430" as="sourcePoint" />
            <mxPoint x="675" y="430" as="targetPoint" />
          </mxGeometry>
        </mxCell>
        <mxCell id="7Zh1SLStp5MP6-WGvkbm-73" value="2.4. Trả về kết quả" style="html=1;verticalAlign=bottom;endArrow=open;dashed=1;endSize=8;curved=0;rounded=0;" edge="1" parent="1">
          <mxGeometry relative="1" as="geometry">
            <mxPoint x="665" y="450" as="sourcePoint" />
            <mxPoint x="405" y="450" as="targetPoint" />
          </mxGeometry>
        </mxCell>
        <mxCell id="7Zh1SLStp5MP6-WGvkbm-74" value="" style="html=1;points=[[0,0,0,0,5],[0,1,0,0,-5],[1,0,0,0,5],[1,1,0,0,-5]];perimeter=orthogonalPerimeter;outlineConnect=0;targetShapes=umlLifeline;portConstraint=eastwest;newEdgeStyle={&quot;curved&quot;:0,&quot;rounded&quot;:0};" vertex="1" parent="1">
          <mxGeometry x="395" y="500" width="10" height="220" as="geometry" />
        </mxCell>
        <mxCell id="7Zh1SLStp5MP6-WGvkbm-75" value="3. Sửa ngành nghề" style="html=1;verticalAlign=bottom;endArrow=block;curved=0;rounded=0;" edge="1" parent="1">
          <mxGeometry width="80" relative="1" as="geometry">
            <mxPoint x="150" y="500" as="sourcePoint" />
            <mxPoint x="395" y="500" as="targetPoint" />
          </mxGeometry>
        </mxCell>
        <mxCell id="7Zh1SLStp5MP6-WGvkbm-76" value="3.1. Gửi thông tin ngành nghề" style="html=1;verticalAlign=bottom;endArrow=block;curved=0;rounded=0;" edge="1" parent="1">
          <mxGeometry width="80" relative="1" as="geometry">
            <mxPoint x="405" y="518.8199999999999" as="sourcePoint" />
            <mxPoint x="665" y="518.8199999999999" as="targetPoint" />
          </mxGeometry>
        </mxCell>
        <mxCell id="7Zh1SLStp5MP6-WGvkbm-77" value="3.2. Cập nhật thông tin ngành nghề" style="html=1;verticalAlign=bottom;endArrow=block;curved=0;rounded=0;" edge="1" parent="1" target="7Zh1SLStp5MP6-WGvkbm-100">
          <mxGeometry width="80" relative="1" as="geometry">
            <mxPoint x="675" y="540" as="sourcePoint" />
            <mxPoint x="920" y="540" as="targetPoint" />
          </mxGeometry>
        </mxCell>
        <mxCell id="7Zh1SLStp5MP6-WGvkbm-78" value="3.3. Trả về kết quả" style="html=1;verticalAlign=bottom;endArrow=open;dashed=1;endSize=8;curved=0;rounded=0;" edge="1" parent="1" source="7Zh1SLStp5MP6-WGvkbm-100">
          <mxGeometry relative="1" as="geometry">
            <mxPoint x="925" y="560" as="sourcePoint" />
            <mxPoint x="675" y="560" as="targetPoint" />
          </mxGeometry>
        </mxCell>
        <mxCell id="7Zh1SLStp5MP6-WGvkbm-79" value="" style="html=1;points=[[0,0,0,0,5],[0,1,0,0,-5],[1,0,0,0,5],[1,1,0,0,-5]];perimeter=orthogonalPerimeter;outlineConnect=0;targetShapes=umlLifeline;portConstraint=eastwest;newEdgeStyle={&quot;curved&quot;:0,&quot;rounded&quot;:0};" vertex="1" parent="1">
          <mxGeometry x="665" y="520" width="10" height="200" as="geometry" />
        </mxCell>
        <mxCell id="7Zh1SLStp5MP6-WGvkbm-80" value="&lt;b&gt;alt&lt;/b&gt;" style="shape=umlFrame;whiteSpace=wrap;html=1;pointerEvents=0;" vertex="1" parent="1">
          <mxGeometry x="240" y="570" width="510" height="130" as="geometry" />
        </mxCell>
        <mxCell id="7Zh1SLStp5MP6-WGvkbm-81" value="" style="endArrow=none;dashed=1;html=1;rounded=0;exitX=-0.003;exitY=0.495;exitDx=0;exitDy=0;exitPerimeter=0;entryX=1;entryY=0.556;entryDx=0;entryDy=0;entryPerimeter=0;" edge="1" parent="1">
          <mxGeometry width="50" height="50" relative="1" as="geometry">
            <mxPoint x="240.00000000000003" y="630" as="sourcePoint" />
            <mxPoint x="751.53" y="630.19" as="targetPoint" />
          </mxGeometry>
        </mxCell>
        <mxCell id="7Zh1SLStp5MP6-WGvkbm-82" value="[Sửa thành công]" style="text;html=1;align=center;verticalAlign=middle;whiteSpace=wrap;rounded=0;" vertex="1" parent="1">
          <mxGeometry x="240" y="600" width="120" height="30" as="geometry" />
        </mxCell>
        <mxCell id="7Zh1SLStp5MP6-WGvkbm-83" value="3.4.1. Thông báo thành công" style="html=1;verticalAlign=bottom;endArrow=open;dashed=1;endSize=8;curved=0;rounded=0;" edge="1" parent="1">
          <mxGeometry relative="1" as="geometry">
            <mxPoint x="665" y="604.44" as="sourcePoint" />
            <mxPoint x="405" y="604.44" as="targetPoint" />
          </mxGeometry>
        </mxCell>
        <mxCell id="7Zh1SLStp5MP6-WGvkbm-84" value="[Sửa không thành công]" style="text;html=1;align=center;verticalAlign=middle;whiteSpace=wrap;rounded=0;" vertex="1" parent="1">
          <mxGeometry x="240" y="630" width="135" height="30" as="geometry" />
        </mxCell>
        <mxCell id="7Zh1SLStp5MP6-WGvkbm-85" value="3.4.2. Thông báo lỗi" style="html=1;verticalAlign=bottom;endArrow=open;dashed=1;endSize=8;curved=0;rounded=0;entryX=1;entryY=1;entryDx=0;entryDy=0;" edge="1" parent="1">
          <mxGeometry relative="1" as="geometry">
            <mxPoint x="665" y="670" as="sourcePoint" />
            <mxPoint x="405" y="670" as="targetPoint" />
          </mxGeometry>
        </mxCell>
        <mxCell id="7Zh1SLStp5MP6-WGvkbm-86" value="" style="html=1;points=[[0,0,0,0,5],[0,1,0,0,-5],[1,0,0,0,5],[1,1,0,0,-5]];perimeter=orthogonalPerimeter;outlineConnect=0;targetShapes=umlLifeline;portConstraint=eastwest;newEdgeStyle={&quot;curved&quot;:0,&quot;rounded&quot;:0};" vertex="1" parent="1">
          <mxGeometry x="395" y="740" width="10" height="250" as="geometry" />
        </mxCell>
        <mxCell id="7Zh1SLStp5MP6-WGvkbm-87" value="4. Xoá ngành nghề" style="html=1;verticalAlign=bottom;endArrow=block;curved=0;rounded=0;" edge="1" parent="1">
          <mxGeometry width="80" relative="1" as="geometry">
            <mxPoint x="150" y="740" as="sourcePoint" />
            <mxPoint x="395" y="740" as="targetPoint" />
          </mxGeometry>
        </mxCell>
        <mxCell id="7Zh1SLStp5MP6-WGvkbm-88" value="4.1. Gửi thông tin ngành nghề" style="html=1;verticalAlign=bottom;endArrow=block;curved=0;rounded=0;" edge="1" parent="1">
          <mxGeometry width="80" relative="1" as="geometry">
            <mxPoint x="405" y="760" as="sourcePoint" />
            <mxPoint x="665" y="760" as="targetPoint" />
          </mxGeometry>
        </mxCell>
        <mxCell id="7Zh1SLStp5MP6-WGvkbm-89" value="4.2. Xoá ngành nghề" style="html=1;verticalAlign=bottom;endArrow=block;curved=0;rounded=0;" edge="1" parent="1">
          <mxGeometry width="80" relative="1" as="geometry">
            <mxPoint x="675" y="780" as="sourcePoint" />
            <mxPoint x="930" y="780" as="targetPoint" />
          </mxGeometry>
        </mxCell>
        <mxCell id="7Zh1SLStp5MP6-WGvkbm-90" value="4.3. Trả về kết quả" style="html=1;verticalAlign=bottom;endArrow=open;dashed=1;endSize=8;curved=0;rounded=0;" edge="1" parent="1">
          <mxGeometry relative="1" as="geometry">
            <mxPoint x="925" y="820" as="sourcePoint" />
            <mxPoint x="675" y="820" as="targetPoint" />
          </mxGeometry>
        </mxCell>
        <mxCell id="7Zh1SLStp5MP6-WGvkbm-91" value="" style="html=1;points=[[0,0,0,0,5],[0,1,0,0,-5],[1,0,0,0,5],[1,1,0,0,-5]];perimeter=orthogonalPerimeter;outlineConnect=0;targetShapes=umlLifeline;portConstraint=eastwest;newEdgeStyle={&quot;curved&quot;:0,&quot;rounded&quot;:0};" vertex="1" parent="1">
          <mxGeometry x="665" y="760" width="10" height="230" as="geometry" />
        </mxCell>
        <mxCell id="7Zh1SLStp5MP6-WGvkbm-92" value="" style="html=1;points=[[0,0,0,0,5],[0,1,0,0,-5],[1,0,0,0,5],[1,1,0,0,-5]];perimeter=orthogonalPerimeter;outlineConnect=0;targetShapes=umlLifeline;portConstraint=eastwest;newEdgeStyle={&quot;curved&quot;:0,&quot;rounded&quot;:0};" vertex="1" parent="1">
          <mxGeometry x="925" y="780" width="10" height="50" as="geometry" />
        </mxCell>
        <mxCell id="7Zh1SLStp5MP6-WGvkbm-93" value="&lt;b&gt;alt&lt;/b&gt;" style="shape=umlFrame;whiteSpace=wrap;html=1;pointerEvents=0;" vertex="1" parent="1">
          <mxGeometry x="240" y="830" width="510" height="130" as="geometry" />
        </mxCell>
        <mxCell id="7Zh1SLStp5MP6-WGvkbm-94" value="" style="endArrow=none;dashed=1;html=1;rounded=0;exitX=-0.003;exitY=0.495;exitDx=0;exitDy=0;exitPerimeter=0;entryX=1;entryY=0.556;entryDx=0;entryDy=0;entryPerimeter=0;" edge="1" parent="1">
          <mxGeometry width="50" height="50" relative="1" as="geometry">
            <mxPoint x="238.47000000000003" y="890" as="sourcePoint" />
            <mxPoint x="750" y="890.19" as="targetPoint" />
          </mxGeometry>
        </mxCell>
        <mxCell id="7Zh1SLStp5MP6-WGvkbm-95" value="[Xoá thành công]" style="text;html=1;align=center;verticalAlign=middle;whiteSpace=wrap;rounded=0;" vertex="1" parent="1">
          <mxGeometry x="240" y="860" width="120" height="30" as="geometry" />
        </mxCell>
        <mxCell id="7Zh1SLStp5MP6-WGvkbm-96" value="4.4.1. Thông báo thành công" style="html=1;verticalAlign=bottom;endArrow=open;dashed=1;endSize=8;curved=0;rounded=0;" edge="1" parent="1">
          <mxGeometry relative="1" as="geometry">
            <mxPoint x="665" y="864.44" as="sourcePoint" />
            <mxPoint x="405" y="864.44" as="targetPoint" />
          </mxGeometry>
        </mxCell>
        <mxCell id="7Zh1SLStp5MP6-WGvkbm-97" value="[Xoá không thành công]" style="text;html=1;align=center;verticalAlign=middle;whiteSpace=wrap;rounded=0;" vertex="1" parent="1">
          <mxGeometry x="240" y="900" width="135" height="30" as="geometry" />
        </mxCell>
        <mxCell id="7Zh1SLStp5MP6-WGvkbm-98" value="4.4.2. Thông báo lỗi" style="html=1;verticalAlign=bottom;endArrow=open;dashed=1;endSize=8;curved=0;rounded=0;entryX=1;entryY=1;entryDx=0;entryDy=0;" edge="1" parent="1">
          <mxGeometry relative="1" as="geometry">
            <mxPoint x="665" y="930" as="sourcePoint" />
            <mxPoint x="405" y="930" as="targetPoint" />
          </mxGeometry>
        </mxCell>
        <mxCell id="7Zh1SLStp5MP6-WGvkbm-99" value="" style="html=1;verticalAlign=bottom;endArrow=open;dashed=1;endSize=8;curved=0;rounded=0;" edge="1" parent="1" target="7Zh1SLStp5MP6-WGvkbm-100">
          <mxGeometry relative="1" as="geometry">
            <mxPoint x="925" y="560" as="sourcePoint" />
            <mxPoint x="675" y="560" as="targetPoint" />
          </mxGeometry>
        </mxCell>
        <mxCell id="7Zh1SLStp5MP6-WGvkbm-100" value="" style="html=1;points=[[0,0,0,0,5],[0,1,0,0,-5],[1,0,0,0,5],[1,1,0,0,-5]];perimeter=orthogonalPerimeter;outlineConnect=0;targetShapes=umlLifeline;portConstraint=eastwest;newEdgeStyle={&quot;curved&quot;:0,&quot;rounded&quot;:0};" vertex="1" parent="1">
          <mxGeometry x="925" y="540" width="10" height="50" as="geometry" />
        </mxCell>
      </root>
    </mxGraphModel>
  </diagram>
</mxfile>
